<?xml version="1.0" standalone="no"?>
<!DOCTYPE svg PUBLIC "-//W3C//DTD SVG 20010904//EN"
 "http://www.w3.org/TR/2001/REC-SVG-20010904/DTD/svg10.dtd">
<svg version="1.0" xmlns="http://www.w3.org/2000/svg"
 width="2038.000000pt" height="2095.000000pt" viewBox="0 0 2038.000000 2095.000000"
 preserveAspectRatio="xMidYMid meet">

<g transform="translate(0.000000,2095.000000) scale(0.100000,-0.100000)"
fill="#000000" stroke="none">
<path d="M10014 20848 c25 -95 39 -210 66 -531 30 -346 31 -378 21 -560 -7
-133 -8 -269 -1 -442 12 -274 0 -594 -25 -722 -11 -55 -12 -91 -5 -155 6 -46
10 -86 10 -90 0 -5 13 -8 30 -8 36 0 35 -5 50 285 5 121 15 250 20 287 6 42 6
93 0 140 -19 145 -21 143 70 53 44 -44 86 -93 94 -110 7 -16 21 -95 31 -175
10 -80 26 -178 36 -219 41 -162 115 -272 191 -286 41 -8 35 -18 69 118 6 23
28 94 50 157 130 374 188 653 192 930 2 147 -16 406 -34 491 -18 83 -165 307
-284 434 l-47 50 47 -65 c90 -127 135 -258 156 -460 16 -159 4 -316 -56 -692
-53 -330 -76 -599 -64 -726 15 -148 13 -153 -39 -90 -142 177 -199 418 -174
740 6 84 32 293 57 463 51 350 61 504 47 720 l-9 149 -44 39 c-120 104 -302
227 -403 272 l-59 26 7 -23z m330 -328 c68 -130 102 -334 93 -564 -7 -188 -27
-574 -33 -661 -5 -63 -9 -74 -43 -114 l-38 -44 -31 119 c-50 193 -58 271 -72
720 -11 343 -30 548 -66 680 -13 51 -24 95 -24 100 0 5 40 -32 90 -81 60 -60
101 -111 124 -155z"/>
<path d="M10210 20598 c20 -72 41 -339 50 -618 11 -347 16 -423 36 -550 19
-127 42 -206 56 -192 5 5 14 92 18 193 5 101 14 269 21 373 25 392 -22 654
-141 789 -40 46 -51 47 -40 5z"/>
<path d="M9268 20585 c6 -185 -34 -379 -176 -840 -101 -326 -134 -446 -169
-610 -25 -118 -27 -149 -27 -340 0 -200 1 -214 28 -300 25 -85 81 -209 109
-247 12 -16 22 -15 143 8 71 14 131 27 133 29 1 2 -31 43 -73 92 -57 66 -81
102 -96 148 -56 171 -51 404 16 690 76 327 96 428 124 608 20 129 30 239 31
320 2 197 5 200 65 66 48 -105 53 -125 69 -254 l17 -140 -60 -285 c-95 -452
-132 -694 -132 -864 0 -77 45 -365 58 -377 4 -3 28 -4 54 -1 43 4 46 6 39 26
-44 115 -47 709 -5 1105 l6 53 45 -43 c80 -78 130 -217 183 -511 51 -284 85
-398 159 -527 l36 -63 95 7 c52 3 96 8 98 9 1 2 -2 42 -7 90 -8 68 -7 104 4
159 26 131 36 440 25 743 -13 370 -14 376 -55 478 -113 280 -183 385 -404 607
-112 113 -192 184 -245 218 -43 28 -81 51 -85 51 -3 0 -4 -47 -3 -105z m367
-300 c77 -167 97 -271 110 -570 10 -226 23 -330 66 -508 23 -92 39 -171 36
-174 -3 -3 -38 23 -77 58 -57 52 -80 81 -115 150 -56 110 -73 195 -85 422 -13
236 -17 277 -41 365 -13 48 -19 106 -19 175 -1 99 -2 106 -50 221 l-49 119 96
-94 c76 -75 102 -108 128 -164z"/>
<path d="M9535 20355 c4 -11 11 -81 15 -155 4 -74 12 -147 18 -161 17 -41 31
-168 42 -369 5 -102 16 -218 25 -258 17 -83 81 -216 120 -252 l28 -25 -6 30
c-3 17 -18 84 -32 150 -19 92 -28 184 -40 391 -17 303 -21 333 -64 454 -43
123 -67 174 -92 196 -22 19 -22 19 -14 -1z"/>
<path d="M11165 20333 c-15 -228 -1 -483 43 -793 54 -377 57 -426 43 -663 -16
-267 -50 -497 -96 -647 -4 -13 13 -19 85 -31 50 -9 92 -13 94 -10 13 21 31
402 31 641 0 382 -30 623 -114 930 -22 79 -39 145 -37 147 3 3 143 -168 168
-206 24 -37 124 -325 159 -460 16 -63 34 -155 39 -204 16 -156 3 -211 -124
-551 -96 -254 -111 -302 -97 -307 12 -4 34 21 88 99 264 383 308 705 151 1115
-17 45 -78 183 -135 307 -162 348 -227 517 -264 693 -7 31 -16 57 -20 57 -4 0
-10 -53 -14 -117z"/>
<path d="M11121 20405 c-53 -45 -106 -138 -146 -256 -39 -112 -39 -116 -37
-244 2 -71 7 -170 13 -220 12 -107 4 -279 -21 -466 -19 -138 -106 -467 -168
-634 -34 -91 -85 -275 -79 -281 5 -5 152 -34 171 -34 23 0 103 251 130 410 29
174 36 263 46 605 20 662 23 705 75 925 25 107 48 201 50 208 6 17 0 15 -34
-13z"/>
<path d="M10567 20263 c6 -136 -6 -292 -38 -502 -66 -436 -72 -493 -72 -691 0
-178 2 -203 25 -291 22 -79 89 -239 102 -239 2 0 3 48 3 108 0 139 24 357 73
667 52 332 66 499 51 646 -18 184 -75 363 -132 415 -17 15 -17 10 -12 -113z"/>
<path d="M9350 20085 c0 -67 -47 -404 -74 -530 -8 -38 -33 -144 -55 -235 -22
-91 -47 -205 -55 -255 -49 -274 -20 -540 66 -622 26 -24 30 -25 25 -8 -22 84
-29 170 -24 289 11 209 40 386 152 926 l37 175 -17 130 c-16 118 -35 195 -49
195 -4 0 -6 -29 -6 -65z"/>
<path d="M11107 20040 c-10 -32 -24 -321 -37 -760 -11 -364 -25 -514 -66 -696
-20 -93 -61 -228 -88 -295 -6 -13 10 -19 94 -34 56 -9 103 -16 104 -14 9 10
47 189 65 304 19 125 41 415 41 541 0 61 -19 220 -65 554 -14 102 -29 239 -33
305 -5 80 -10 112 -15 95z"/>
<path d="M11305 19715 c68 -204 111 -625 102 -997 -4 -137 -5 -248 -3 -248 2
0 32 75 66 166 109 295 103 406 -47 843 -49 145 -74 203 -96 225 -22 23 -27
26 -22 11z"/>
<path d="M9447 19287 c-22 -318 -29 -509 -23 -630 8 -181 24 -319 41 -336 11
-11 38 -11 169 0 86 7 156 15 156 18 0 3 -10 22 -22 41 -62 102 -104 240 -153
510 -46 256 -104 441 -148 478 -12 10 -15 -2 -20 -81z"/>
<path d="M6910 19360 c0 -5 6 -37 14 -72 8 -35 21 -151 31 -258 16 -190 16
-198 -4 -321 -20 -122 -20 -133 -5 -405 9 -177 14 -416 12 -654 -2 -366 -1
-375 18 -375 17 0 20 10 26 105 3 58 11 129 17 159 6 29 11 137 11 240 l0 185
56 -54 c41 -40 68 -79 99 -145 l43 -90 0 120 c0 140 17 271 73 578 l41 222 -7
220 c-3 121 -11 246 -17 278 -10 52 -16 62 -62 101 -45 38 -172 110 -243 137
-30 11 -28 8 58 -98 53 -65 72 -98 93 -160 52 -161 59 -222 64 -608 l4 -359
-33 -108 c-31 -98 -49 -132 -49 -93 0 8 -20 78 -45 155 -72 224 -69 195 -69
660 l-1 425 -35 102 c-30 89 -38 104 -62 112 -16 6 -28 6 -28 1z"/>
<path d="M6260 19294 c0 -10 7 -58 15 -105 12 -67 13 -102 5 -155 -5 -38 -10
-73 -10 -77 0 -5 22 -32 49 -60 69 -73 101 -180 106 -352 2 -73 13 -169 29
-245 24 -122 32 -149 76 -260 12 -29 35 -135 51 -235 17 -99 37 -207 45 -240
19 -74 65 -166 108 -220 18 -22 35 -48 39 -57 5 -15 19 -18 73 -18 l66 0 -5
28 c-3 15 -1 182 4 371 7 272 6 404 -6 628 l-15 284 -39 82 c-72 151 -149 248
-294 373 -51 43 -138 124 -194 178 -74 72 -103 94 -103 80z m240 -264 c6 -11
31 -43 55 -70 25 -28 45 -55 45 -61 0 -6 14 -43 32 -82 61 -140 69 -188 78
-482 7 -220 12 -282 28 -335 11 -36 22 -101 26 -145 l7 -80 -75 110 c-108 155
-161 269 -183 385 -14 78 -17 147 -15 390 l1 295 -25 38 c-14 21 -22 42 -19
47 10 17 34 11 45 -10z"/>
<path d="M6536 18717 c-11 -311 11 -493 76 -621 30 -60 89 -149 94 -143 2 2
-4 27 -12 57 -11 39 -18 132 -24 320 -9 291 -16 334 -75 468 -19 44 -35 85
-35 91 0 5 -4 12 -9 15 -4 3 -11 -81 -15 -187z"/>
<path d="M13464 19300 c-17 -6 -31 -35 -58 -117 -31 -94 -37 -128 -46 -258 -5
-83 -10 -263 -10 -400 0 -291 -1 -297 -137 -675 -3 -8 -20 35 -37 96 -36 124
-36 90 -16 549 11 249 27 364 70 498 30 95 46 121 138 226 32 35 48 61 39 61
-29 0 -233 -110 -273 -147 -52 -49 -60 -90 -74 -383 -10 -213 -9 -217 20 -405
47 -302 63 -465 57 -600 l-5 -120 51 99 c40 77 64 110 106 145 l53 46 -3 -200
c-3 -180 3 -332 17 -452 4 -33 9 -43 23 -43 17 0 19 21 24 363 4 264 12 440
31 652 24 282 24 294 9 422 -16 127 -15 137 6 325 13 106 29 218 37 249 21 84
20 86 -22 69z"/>
<path d="M14080 19168 c-36 -32 -117 -101 -180 -152 -195 -159 -292 -272 -371
-432 -28 -56 -31 -77 -50 -290 -14 -157 -23 -360 -27 -649 -4 -231 -7 -421 -6
-422 0 -2 28 -6 62 -9 59 -6 62 -6 71 18 5 13 16 30 25 37 29 24 87 120 111
186 14 36 41 145 61 243 46 229 49 243 89 332 42 94 95 322 95 409 0 88 16
181 45 265 18 53 36 82 74 120 l51 51 -7 82 c-4 59 -1 106 12 172 10 51 16 93
14 95 -2 2 -33 -23 -69 -56z m-130 -200 c0 -5 -11 -26 -25 -46 -24 -36 -25
-42 -25 -207 0 -205 -15 -421 -35 -518 -18 -88 -79 -218 -138 -295 -24 -31
-63 -85 -86 -120 -24 -35 -44 -62 -46 -60 -7 7 24 178 44 243 18 57 24 111 31
285 10 232 25 337 63 427 14 32 36 84 49 115 14 31 43 77 65 101 22 24 48 55
57 70 16 24 46 28 46 5z"/>
<path d="M13846 18835 c-5 -11 -25 -58 -46 -105 -70 -157 -78 -201 -90 -480
-7 -161 -14 -232 -29 -285 -11 -38 -18 -71 -17 -73 7 -6 75 96 109 163 47 94
66 186 78 378 12 186 9 433 -5 402z"/>
<path d="M7076 18731 c0 -316 4 -448 13 -481 23 -83 63 -205 71 -213 4 -4 13
12 20 37 9 33 11 132 7 398 -5 375 -12 443 -60 585 -52 152 -52 150 -51 -326z"/>
<path d="M13311 19090 c-28 -46 -68 -179 -86 -285 -29 -165 -47 -748 -25 -800
12 -30 12 -29 50 76 21 59 43 133 49 165 6 33 13 214 16 404 3 190 9 372 14
405 4 33 7 62 5 64 -2 2 -12 -11 -23 -29z"/>
<path d="M7364 19075 c3 -11 10 -47 16 -80 6 -35 23 -80 42 -110 17 -27 45
-75 62 -105 44 -80 45 -160 7 -440 -17 -124 -42 -317 -56 -430 -13 -113 -36
-248 -50 -300 -13 -52 -25 -103 -25 -113 0 -10 29 -49 65 -87 36 -38 65 -67
65 -64 0 3 13 85 30 182 96 576 101 611 107 892 l5 265 -31 84 c-23 61 -48
105 -89 155 -86 105 -154 174 -148 151z"/>
<path d="M10224 19030 c3 -23 2 -78 -4 -123 -9 -63 -40 -556 -36 -564 2 -3
311 -20 315 -16 3 2 -7 16 -21 31 -67 71 -116 228 -144 463 -18 154 -35 198
-91 235 l-26 16 7 -42z"/>
<path d="M7872 19028 c-9 -9 -12 -92 -12 -314 0 -286 1 -308 25 -406 39 -168
47 -257 48 -563 1 -278 0 -295 -25 -405 -14 -63 -29 -122 -33 -132 -5 -13 4
-18 50 -28 32 -7 61 -8 65 -3 7 7 15 89 40 368 14 153 11 274 -10 410 -10 72
-26 180 -35 240 -9 61 -27 183 -40 272 -14 89 -25 167 -24 175 0 23 140 -262
181 -370 58 -156 79 -258 85 -412 10 -277 -25 -484 -108 -630 -22 -40 -39 -73
-37 -75 2 -2 15 -6 30 -10 22 -6 27 -3 33 17 4 12 35 95 70 183 104 262 134
420 115 593 -17 157 -37 215 -113 341 -122 200 -183 355 -247 624 -18 75 -36
137 -40 137 -3 0 -11 -5 -18 -12z"/>
<path d="M12925 18929 c-87 -99 -102 -121 -132 -200 l-33 -89 0 -273 c0 -282
12 -412 87 -935 l18 -123 69 70 70 70 -27 118 c-16 67 -34 194 -42 293 -8 96
-26 282 -40 414 -37 350 -35 385 29 486 19 30 47 74 62 98 21 35 52 133 54
175 1 21 -26 -3 -115 -104z"/>
<path d="M12506 19009 c-3 -8 -23 -81 -46 -164 -68 -247 -144 -418 -271 -606
-67 -101 -91 -174 -111 -341 -13 -110 -2 -230 32 -363 18 -66 127 -381 136
-394 2 -2 15 -1 29 3 l25 6 -34 69 c-19 38 -47 115 -61 172 -26 101 -27 110
-22 344 5 266 13 313 93 510 30 74 190 385 198 385 2 0 -11 -72 -89 -505 -65
-357 -64 -348 -53 -563 5 -108 12 -243 15 -300 l5 -102 51 6 c29 4 55 9 59 13
4 4 -4 69 -18 146 -25 139 -25 142 -14 385 14 315 23 401 59 541 26 102 30
142 40 374 6 143 14 283 17 310 5 42 2 53 -15 69 -16 15 -22 16 -25 5z"/>
<path d="M7793 18942 c-23 -29 -53 -76 -66 -104 -49 -104 -55 -146 -61 -438
l-5 -275 -60 -365 c-33 -201 -66 -397 -72 -437 -7 -40 -11 -75 -8 -77 3 -3 23
-8 44 -11 l40 -7 43 100 c68 158 81 278 91 822 l8 405 47 209 c26 115 45 213
43 219 -2 6 -22 -12 -44 -41z"/>
<path d="M12560 18963 c0 -6 19 -109 42 -229 33 -171 43 -241 42 -319 0 -55
-2 -257 -4 -450 -3 -418 5 -517 58 -650 19 -49 39 -95 43 -100 12 -16 89 -6
89 11 0 8 -26 200 -57 426 l-58 413 0 310 c0 340 -2 353 -61 465 -35 66 -94
143 -94 123z"/>
<path d="M3419 18926 c-74 -30 -108 -55 -202 -145 l-78 -75 52 -18 c116 -39
313 -216 410 -366 179 -279 186 -630 18 -941 -35 -65 -58 -100 -147 -220 -10
-15 -5 -34 32 -119 61 -138 71 -194 52 -268 -15 -57 -14 -74 4 -74 6 0 38 -14
72 -30 75 -36 67 -42 129 99 104 236 143 402 143 611 1 80 -2 157 -6 171 -7
25 -5 27 28 34 23 4 41 2 48 -5 7 -7 11 -70 10 -188 0 -142 -5 -197 -22 -278
-29 -134 -81 -283 -147 -421 -52 -108 -53 -112 -34 -129 10 -9 21 -25 24 -35
4 -11 9 -19 13 -19 11 0 95 163 145 280 88 209 166 487 207 750 12 74 25 153
29 175 l7 40 148 40 c169 46 156 34 206 183 73 218 17 304 -226 352 l-62 12
-4 117 c-6 131 -20 174 -70 216 -28 24 -39 27 -88 23 -57 -4 -152 -45 -216
-94 -39 -30 -48 -27 -64 24 -23 71 -91 190 -136 236 -82 86 -169 106 -275 62z
m491 -483 c137 -126 174 -317 109 -566 -10 -37 -12 -38 -42 -32 -18 4 -35 10
-39 14 -4 3 -1 31 7 61 41 151 26 304 -37 404 -27 42 -124 126 -158 138 -7 2
-5 17 5 41 l16 38 41 -23 c23 -13 67 -46 98 -75z"/>
<path d="M16690 18925 c-78 -35 -163 -145 -216 -280 -15 -38 -29 -72 -30 -74
-2 -2 -32 15 -68 38 -127 83 -228 103 -284 56 -46 -38 -64 -95 -70 -221 l-5
-111 -81 -18 c-131 -28 -215 -83 -232 -152 -14 -55 11 -170 64 -293 l19 -45
151 -40 151 -40 5 -35 c74 -495 153 -776 311 -1090 50 -99 75 -137 75 -111 0
5 11 22 24 38 l24 29 -39 79 c-135 275 -200 560 -184 801 4 55 10 106 14 113
6 8 20 10 45 6 36 -7 37 -9 30 -39 -4 -17 -7 -92 -7 -166 1 -213 49 -409 155
-632 28 -60 52 -108 53 -108 1 0 29 14 63 30 34 17 66 30 72 30 19 0 20 21 6
77 -19 72 -12 108 50 260 l46 112 -35 43 c-99 122 -178 277 -220 432 -29 108
-31 326 -4 431 27 102 107 262 175 346 104 131 270 264 360 288 l42 12 -32 40
c-44 55 -140 132 -211 170 -73 38 -162 48 -217 24z m-155 -425 c21 -41 20 -44
-24 -68 -58 -33 -121 -101 -148 -159 -46 -99 -51 -201 -17 -352 8 -36 11 -68
7 -72 -5 -4 -22 -10 -40 -14 l-31 -6 -19 78 c-26 115 -23 279 7 358 39 103 98
174 194 234 28 17 51 31 53 31 1 0 9 -13 18 -30z"/>
<path d="M6254 18872 c-20 -93 -66 -247 -136 -462 -134 -414 -164 -567 -155
-785 8 -174 25 -232 95 -323 32 -40 62 -80 68 -88 10 -12 23 -13 85 -3 106 16
103 13 65 63 -76 99 -126 276 -126 443 0 118 17 225 75 483 41 183 54 257 89
520 l14 105 -34 37 -34 38 -6 -28z"/>
<path d="M7378 18729 c4 -132 1 -159 -31 -334 -73 -388 -87 -518 -75 -690 6
-96 13 -134 25 -147 9 -10 19 -18 22 -18 13 0 61 229 76 365 9 77 32 257 51
399 43 328 44 374 4 452 -16 32 -40 72 -53 88 l-23 29 4 -144z"/>
<path d="M12978 18772 c-79 -122 -80 -139 -44 -492 14 -129 32 -316 41 -416 9
-99 26 -224 38 -277 l23 -98 21 23 c18 19 24 44 34 138 17 173 4 340 -56 730
-21 134 -24 175 -18 303 3 81 4 147 2 147 -2 0 -21 -26 -41 -58z"/>
<path d="M14102 18787 l-33 -34 21 -200 c22 -217 24 -230 75 -493 45 -229 57
-366 45 -484 -15 -149 -67 -290 -140 -381 -21 -27 -28 -41 -18 -43 7 -1 46 -8
85 -15 l72 -14 66 79 c37 43 72 93 80 111 46 110 60 360 30 545 -19 119 -37
188 -130 512 -40 140 -81 291 -90 335 -27 124 -25 122 -63 82z"/>
<path d="M6333 18562 c-13 -92 -45 -266 -72 -387 -27 -121 -55 -260 -62 -310
-17 -131 -7 -292 24 -385 l25 -75 1 125 c1 124 21 290 61 490 11 58 20 124 20
147 0 24 11 96 25 160 13 65 27 141 30 168 7 50 -10 214 -23 227 -4 4 -17 -68
-29 -160z"/>
<path d="M7797 18590 c-14 -62 -17 -122 -17 -358 0 -519 -23 -754 -90 -907
-24 -53 -40 -99 -37 -102 4 -3 41 -12 84 -19 95 -17 93 -19 123 110 32 135 42
285 35 521 -7 217 -24 370 -51 465 -11 34 -19 114 -23 210 l-6 155 -18 -75z"/>
<path d="M14026 18644 c-3 -9 -12 -59 -18 -111 -11 -88 -10 -106 15 -256 15
-89 27 -179 27 -200 0 -21 12 -118 27 -215 21 -140 27 -214 28 -355 0 -97 1
-177 2 -177 1 0 14 37 28 81 56 178 52 327 -19 694 -25 127 -52 302 -61 390
-9 88 -18 161 -19 163 -2 1 -6 -5 -10 -14z"/>
<path d="M12566 18515 c-3 -77 -13 -169 -22 -205 -50 -196 -64 -324 -79 -700
-5 -128 -3 -161 19 -279 14 -74 29 -137 33 -141 4 -4 47 -3 95 3 l87 9 -19 49
c-11 26 -27 65 -36 86 -40 96 -57 420 -43 838 9 279 8 306 -9 390 l-19 90 -7
-140z"/>
<path d="M8005 18345 c3 -33 20 -148 37 -255 45 -293 47 -404 9 -745 -5 -44
-8 -81 -6 -83 9 -10 42 67 67 157 29 103 30 113 31 341 2 263 -3 292 -83 506
-53 141 -63 155 -55 79z"/>
<path d="M12367 18353 c-32 -62 -88 -207 -114 -295 -25 -86 -27 -109 -31 -320
-4 -207 -2 -234 19 -325 12 -54 31 -116 43 -138 19 -38 21 -39 24 -15 3 14 -1
68 -7 120 -6 52 -13 159 -16 238 -5 152 -8 127 74 592 16 91 28 167 26 168 -2
2 -10 -9 -18 -25z"/>
<path d="M6397 18334 c-3 -6 -11 -51 -17 -100 -6 -49 -18 -132 -26 -184 -62
-376 -64 -396 -64 -559 l0 -164 33 -43 c24 -33 39 -43 60 -44 l28 0 -8 63 c-4
34 -7 205 -6 380 2 292 4 321 22 362 15 33 24 43 36 39 13 -5 14 -2 4 22 -6
16 -21 76 -33 134 -12 57 -25 99 -29 94z"/>
<path d="M9820 18289 c-378 -18 -801 -91 -1130 -195 l-81 -25 6 -32 c64 -397
123 -626 217 -855 26 -62 36 -76 69 -92 46 -24 73 -25 130 -4 85 30 346 93
469 112 215 35 348 46 575 45 369 0 693 -46 1049 -150 113 -32 122 -34 190
-23 80 12 117 34 130 76 5 16 30 79 57 139 65 148 91 222 128 351 37 133 84
385 74 395 -8 7 -194 68 -268 88 -22 6 -213 42 -424 81 -349 63 -406 71 -625
85 -255 16 -318 16 -566 4z m410 -89 c19 -19 20 -33 20 -424 l0 -404 -31 -26
c-34 -29 -67 -33 -108 -12 -56 29 -54 14 -46 438 l8 392 28 28 c35 35 98 39
129 8z m-466 -45 c16 -12 22 -58 51 -412 35 -433 35 -423 -20 -459 -31 -20
-85 -12 -119 19 -25 22 -25 24 -47 416 l-22 394 32 29 c35 31 92 38 125 13z
m882 -20 c19 -19 24 -33 20 -53 -3 -15 -8 -182 -11 -372 -4 -190 -11 -362 -16
-382 -10 -40 -48 -68 -91 -68 -27 0 -86 34 -94 54 -3 7 4 188 15 401 17 343
22 389 38 407 40 44 102 50 139 13z m-1309 -42 c17 -15 30 -82 83 -409 66
-416 66 -415 18 -448 -29 -21 -71 -20 -111 0 -18 9 -33 17 -34 18 -1 1 -25
166 -53 366 -28 201 -53 377 -56 393 -5 22 1 34 29 62 40 40 91 47 124 18z
m1775 -30 c10 -9 18 -28 18 -43 0 -14 -25 -195 -55 -401 -52 -355 -56 -375
-81 -396 -37 -33 -91 -31 -134 6 l-35 29 64 383 c35 211 68 391 72 400 22 45
111 58 151 22z m-2210 -60 c8 -10 65 -185 127 -388 121 -397 122 -407 72 -446
-21 -17 -36 -20 -78 -17 -29 3 -55 7 -57 9 -8 8 -216 755 -216 776 0 12 13 35
29 52 23 25 37 31 68 31 26 0 45 -6 55 -17z m2625 -28 c12 -13 19 -32 17 -42
-2 -10 -40 -187 -83 -393 -87 -415 -86 -410 -163 -410 -32 0 -47 7 -75 35 -22
22 -33 41 -29 52 2 10 41 176 86 368 44 193 85 360 90 373 13 29 66 53 105 47
17 -3 40 -16 52 -30z"/>
<path d="M13980 18270 c-1 -3 -14 -52 -30 -110 -15 -58 -31 -115 -35 -128 -6
-17 -4 -21 7 -17 11 4 20 -7 31 -37 28 -74 22 -608 -9 -775 -6 -31 -5 -33 22
-32 21 0 37 11 60 39 l32 40 7 162 c7 166 -4 316 -41 523 -8 44 -14 105 -15
135 0 50 -24 212 -29 200z"/>
<path d="M6455 18027 c-20 -48 -32 -544 -16 -681 6 -55 13 -101 14 -101 1 -1
64 3 140 8 149 11 154 15 113 64 -81 97 -118 202 -161 458 -49 284 -61 320
-90 252z"/>
<path d="M13870 17933 c-11 -38 -36 -148 -55 -245 -41 -211 -77 -310 -145
-398 -27 -36 -49 -70 -50 -75 0 -6 60 -17 139 -25 l139 -15 12 70 c7 39 14
207 17 375 4 264 2 310 -11 343 -9 20 -18 37 -21 37 -2 0 -14 -30 -25 -67z"/>
<path d="M7070 17733 c0 -77 -5 -165 -11 -194 -5 -30 -13 -102 -17 -160 l-7
-107 59 -6 c65 -7 216 -8 216 -2 0 2 -16 30 -35 62 -52 87 -76 158 -82 254 -5
72 -13 99 -48 175 -23 50 -49 96 -58 104 -16 12 -17 3 -17 -126z"/>
<path d="M13273 17798 c-12 -13 -39 -59 -61 -103 -32 -65 -40 -94 -45 -155 -6
-92 -32 -167 -85 -251 l-41 -64 136 -3 c75 -1 137 -1 138 0 1 2 -3 66 -9 143
-6 77 -9 211 -8 298 2 86 1 157 -1 157 -2 0 -13 -10 -24 -22z"/>
<path d="M4407 17726 c-64 -18 -120 -36 -124 -40 -4 -4 -19 -82 -35 -174 -65
-392 -172 -715 -327 -993 l-58 -104 23 -46 c13 -25 34 -88 47 -138 l24 -92 35
43 c31 38 36 52 42 123 30 336 130 551 365 786 100 99 112 107 209 149 l103
45 19 63 c26 82 26 183 1 237 -23 51 -82 109 -146 146 -27 16 -52 29 -55 28
-3 0 -58 -15 -123 -33z"/>
<path d="M15710 17724 c-68 -40 -126 -101 -151 -158 -18 -41 -20 -63 -16 -121
3 -38 12 -92 21 -120 l16 -50 97 -40 c86 -36 107 -49 186 -125 152 -144 252
-283 311 -434 37 -91 74 -260 82 -369 7 -90 12 -101 79 -175 1 -1 12 39 25 90
12 51 33 113 45 138 l23 45 -50 90 c-158 282 -272 629 -335 1015 -15 91 -27
166 -28 168 -2 2 -252 72 -258 72 -1 0 -22 -12 -47 -26z"/>
<path d="M7232 17603 c-4 -89 28 -181 104 -300 33 -52 34 -53 84 -53 47 0 50
1 50 26 0 18 -18 45 -58 87 -114 122 -170 200 -175 242 l-4 40 -1 -42z"/>
<path d="M13120 17551 c0 -31 -31 -70 -167 -212 -54 -57 -73 -84 -73 -104 0
-23 3 -26 23 -21 12 3 36 6 53 6 28 0 37 8 82 78 28 42 57 98 66 125 18 52 32
157 22 157 -3 0 -6 -13 -6 -29z"/>
<path d="M2723 17425 c-194 -42 -345 -204 -409 -440 -23 -83 -22 -85 40 -85
40 0 78 -11 160 -45 142 -60 179 -87 210 -155 73 -162 101 -336 115 -725 6
-148 15 -306 21 -350 13 -102 31 -198 39 -207 3 -4 109 -54 235 -112 l229
-106 -6 208 c-22 750 -287 1392 -648 1571 -62 31 -103 44 -147 48 l-62 6 0 38
0 39 43 0 c113 0 255 -71 379 -189 250 -238 423 -659 493 -1201 9 -69 19 -226
22 -349 l6 -224 99 -151 c54 -82 100 -151 101 -152 1 -1 2 111 2 249 0 273 11
359 61 527 36 119 68 192 125 285 l48 80 -9 105 c-11 134 -25 182 -88 306 -62
123 -115 173 -242 227 -47 20 -86 43 -88 50 -2 8 5 48 16 88 22 87 16 124 -41
257 -53 123 -78 161 -160 239 -155 147 -356 209 -544 168z"/>
<path d="M17330 17414 c-36 -7 -103 -32 -150 -55 -68 -34 -102 -60 -170 -128
-81 -82 -89 -92 -138 -209 -64 -149 -71 -192 -44 -293 l19 -75 -96 -42 c-139
-60 -184 -103 -248 -238 -59 -122 -83 -222 -83 -339 0 -68 3 -81 29 -118 143
-209 223 -575 206 -947 -4 -111 -3 -132 7 -116 7 10 52 78 101 152 l87 133 0
143 c1 554 137 1100 362 1443 74 113 225 261 313 307 87 45 164 68 228 68 l50
0 -7 -31 c-3 -17 -6 -35 -6 -39 0 -4 -28 -10 -62 -13 -128 -11 -287 -119 -401
-270 -236 -314 -375 -798 -394 -1369 l-6 -188 204 94 c291 132 264 114 279
188 24 124 30 187 40 448 13 338 25 458 60 595 37 147 69 215 118 253 62 50
244 122 307 122 28 0 54 3 57 6 11 11 -32 149 -73 232 -112 229 -341 340 -589
286z"/>
<path d="M6640 17219 c-169 -12 -412 -44 -540 -69 -100 -20 -329 -90 -359
-109 -32 -21 12 -311 71 -463 33 -87 108 -206 160 -256 l35 -33 113 25 c295
67 529 95 850 103 349 8 639 -17 943 -81 l109 -23 52 66 c159 199 236 385 236
568 l0 84 -34 14 c-109 46 -651 147 -881 165 -200 15 -609 20 -755 9z m442
-97 c14 -14 17 -59 26 -297 8 -249 8 -281 -6 -292 -23 -19 -86 -16 -110 5 -19
16 -20 33 -27 303 l-6 287 28 10 c34 13 72 6 95 -16z m-382 -2 c11 -11 20 -30
20 -42 0 -13 9 -131 20 -263 11 -132 20 -250 20 -261 0 -42 -99 -57 -130 -19
-9 11 -49 461 -50 563 0 41 85 57 120 22z m729 2 l22 -17 -20 -284 c-12 -157
-26 -290 -31 -295 -19 -19 -88 -12 -110 10 l-21 20 22 280 c17 223 25 282 37
292 23 18 76 15 101 -6z m359 -28 c12 -8 22 -25 22 -37 1 -38 -93 -541 -103
-554 -13 -18 -78 -16 -105 3 -12 8 -22 25 -22 36 0 44 104 553 114 560 19 13
71 9 94 -8z m-1464 -23 c12 -14 28 -88 56 -267 22 -137 42 -263 45 -280 4 -26
1 -33 -20 -42 -37 -17 -80 -15 -103 6 -16 14 -25 59 -57 277 -20 143 -39 269
-42 281 -9 40 89 61 121 25z m1831 -56 c14 -13 25 -28 24 -32 0 -4 -42 -129
-92 -278 -90 -264 -93 -270 -121 -273 -40 -5 -85 16 -92 44 -4 14 25 112 81
276 48 139 92 261 97 271 14 27 73 23 103 -8z m-2146 -2 c17 -14 39 -82 95
-293 68 -250 73 -275 58 -287 -28 -20 -70 -25 -99 -11 -27 13 -32 28 -100 288
-40 151 -70 281 -68 288 11 31 83 40 114 15z"/>
<path d="M4644 17169 c-82 -36 -102 -50 -188 -137 -106 -107 -170 -188 -216
-274 -31 -58 -83 -188 -76 -188 3 0 93 104 201 230 108 127 200 230 204 230 4
0 18 -11 31 -25 21 -22 22 -27 8 -42 -8 -10 -38 -46 -68 -81 -29 -34 -51 -64
-49 -66 2 -2 42 9 89 23 83 26 86 28 118 81 50 85 75 158 76 225 1 76 -7 78
-130 24z"/>
<path d="M12840 17190 c-271 -14 -512 -48 -717 -101 -116 -29 -269 -84 -278
-99 -7 -12 12 -186 31 -278 33 -162 90 -292 176 -399 44 -55 55 -64 77 -60 14
2 105 21 201 40 578 119 1148 121 1707 7 54 -11 105 -23 114 -25 12 -4 33 16
72 67 138 181 212 350 223 516 10 138 14 133 -123 175 -389 121 -977 183
-1483 157z m361 -109 c23 -18 23 -23 33 -301 9 -269 8 -284 -9 -297 -24 -17
-59 -17 -94 1 l-28 15 -6 173 c-4 95 -7 226 -7 290 0 101 2 118 18 127 27 16
68 13 93 -8z m-376 -4 c15 -12 20 -45 36 -243 10 -126 20 -255 23 -287 6 -58
6 -58 -27 -72 -37 -15 -80 -10 -100 14 -10 12 -19 89 -32 295 -18 271 -18 279
0 292 24 18 76 18 100 1z m734 -6 c14 -14 19 -29 16 -53 -3 -18 -12 -145 -21
-283 -10 -158 -21 -253 -28 -257 -24 -16 -93 -8 -111 12 -18 20 -18 29 4 302
14 186 26 285 34 290 24 15 87 8 106 -11z m362 -30 l23 -19 -52 -283 c-30
-163 -57 -286 -64 -291 -25 -15 -77 -8 -102 15 l-26 22 55 278 c30 153 57 282
60 287 11 17 81 11 106 -9z m-1469 -18 c11 -12 30 -105 57 -278 23 -143 41
-270 41 -283 0 -40 -80 -57 -119 -24 -17 15 -26 56 -62 296 -39 267 -40 280
-23 293 26 19 88 16 106 -4z m1830 -50 c10 -9 18 -23 18 -32 0 -22 -170 -533
-183 -548 -20 -26 -107 -4 -120 31 -5 13 64 226 159 494 l26 72 41 0 c24 0 48
-7 59 -17z m-2140 -10 c14 -16 158 -525 158 -559 0 -31 -89 -47 -123 -21 -12
8 -40 100 -87 281 -39 148 -70 275 -70 281 0 32 97 46 122 18z"/>
<path d="M15514 17173 c-16 -64 76 -295 127 -320 13 -6 57 -20 98 -32 66 -18
72 -18 59 -3 -8 9 -40 48 -73 85 l-58 68 23 24 c13 14 28 25 34 24 6 0 98
-103 205 -230 107 -126 196 -227 198 -225 8 7 -59 159 -101 229 -48 80 -171
224 -244 285 -50 42 -209 122 -244 122 -11 0 -20 -11 -24 -27z"/>
<path d="M9830 17103 c-126 -6 -310 -27 -308 -35 2 -5 57 -83 123 -174 l119
-166 58 179 c32 98 57 183 55 188 -1 6 -22 9 -47 8z"/>
<path d="M9926 17099 c-11 -29 -136 -421 -136 -423 0 -2 114 -3 253 -3 138 0
305 -5 370 -12 66 -7 120 -11 122 -9 2 3 -142 418 -148 424 -1 2 -52 -78 -112
-177 -61 -98 -112 -179 -115 -179 -3 0 -48 75 -100 168 -130 232 -128 228
-134 211z"/>
<path d="M10009 17059 c17 -30 57 -100 88 -156 32 -57 60 -103 64 -103 8 0
183 289 178 294 -2 2 -84 7 -182 11 l-179 8 31 -54z"/>
<path d="M10430 17086 c0 -7 121 -350 124 -353 2 -2 47 65 100 148 53 84 93
155 89 159 -4 4 -64 15 -133 24 -69 9 -137 19 -152 21 -16 3 -28 3 -28 1z"/>
<path d="M9415 17059 c-98 -18 -280 -61 -288 -69 -5 -4 49 -72 119 -150 78
-87 130 -137 133 -129 2 8 30 92 62 187 64 190 66 177 -26 161z"/>
<path d="M10820 17018 c0 -19 82 -332 90 -341 4 -4 64 56 135 133 70 77 126
143 123 145 -5 5 -320 75 -337 75 -6 0 -11 -5 -11 -12z"/>
<path d="M9461 16832 c-29 -92 -57 -177 -62 -190 -8 -22 -18 -13 -132 115 -68
76 -138 154 -155 173 l-31 35 8 -31 c27 -97 172 -334 204 -334 10 0 68 9 130
20 62 11 163 26 225 32 l112 13 -115 159 c-63 88 -118 163 -122 167 -5 5 -32
-67 -62 -159z"/>
<path d="M10670 16833 c-58 -91 -106 -172 -108 -179 -2 -8 5 -14 17 -14 11 0
81 -11 157 -25 75 -14 140 -24 144 -23 6 3 -92 394 -101 402 -2 2 -51 -71
-109 -161z"/>
<path d="M11215 16923 c46 -72 45 -71 45 -30 0 31 -4 39 -26 47 -37 14 -38 13
-19 -17z"/>
<path d="M9041 16895 c-1 -81 56 -183 132 -237 l31 -22 -31 44 c-51 76 -86
140 -109 204 l-23 61 0 -50z"/>
<path d="M11036 16741 c-75 -82 -136 -152 -136 -154 0 -3 22 -10 50 -17 46
-11 52 -10 101 17 73 39 150 112 177 167 l23 46 -32 45 c-18 25 -36 45 -40 45
-4 0 -69 -67 -143 -149z"/>
<path d="M4513 16737 l-132 -42 -128 -150 c-115 -136 -128 -154 -133 -197 -4
-27 -5 -48 -3 -48 2 0 105 74 228 165 123 91 227 165 230 165 10 0 44 -43 44
-55 0 -5 -48 -45 -107 -88 -59 -42 -117 -85 -129 -95 -22 -16 -16 -17 143 -17
l167 1 38 76 c48 95 62 152 49 200 -14 48 -85 128 -113 127 -12 -1 -81 -20
-154 -42z"/>
<path d="M15573 16738 c-77 -82 -81 -151 -17 -288 l40 -84 170 -1 169 0 -115
84 c-160 116 -154 109 -129 148 l20 32 167 -123 c92 -67 196 -143 231 -169 35
-26 65 -46 67 -44 2 2 0 24 -5 50 -7 38 -25 66 -104 159 -173 205 -145 184
-297 228 -74 22 -142 40 -151 40 -8 0 -29 -15 -46 -32z"/>
<path d="M9836 16629 c-219 -14 -546 -64 -546 -83 -1 -30 92 -1263 96 -1274 2
-9 17 -12 41 -10 l38 3 3 613 2 613 37 15 c47 20 118 20 148 0 l25 -16 2 -613
3 -612 78 -3 77 -3 0 616 0 616 37 15 c49 21 111 21 151 0 l32 -17 0 -614 0
-615 85 0 85 0 0 614 0 614 42 17 c54 21 122 21 153 1 l25 -16 0 -615 0 -615
85 0 85 0 0 615 0 615 37 15 c50 21 112 21 151 1 l32 -17 0 -614 0 -615 55 0
c53 0 55 1 55 28 0 15 7 296 16 626 9 329 12 602 7 606 -11 12 -284 66 -423
85 -239 32 -470 39 -714 24z"/>
<path d="M6928 16253 l-58 -4 61 -121 c51 -101 63 -118 74 -107 7 8 42 61 79
119 l66 105 -28 6 c-29 7 -100 8 -194 2z"/>
<path d="M4449 16234 c-338 -61 -584 -306 -679 -679 -43 -168 -53 -284 -47
-545 4 -135 11 -269 16 -298 16 -88 238 -444 385 -619 73 -86 126 -142 126
-131 0 3 -27 62 -60 130 -47 97 -79 147 -144 225 -76 90 -88 110 -124 209 -22
60 -43 138 -46 174 -4 36 -23 143 -42 239 -37 187 -37 191 17 191 26 0 27 -2
57 -157 18 -87 38 -201 46 -253 18 -121 69 -253 120 -311 l38 -44 -34 70 c-65
132 -76 177 -82 340 -4 83 -13 211 -21 285 -8 74 -15 154 -15 178 l0 42 40 0
40 0 0 -42 c0 -24 7 -104 15 -178 8 -74 17 -200 21 -280 5 -121 10 -156 32
-215 31 -85 39 -70 22 44 -8 56 -13 208 -14 438 l-1 351 34 6 c19 3 37 3 40 0
4 -3 7 -174 7 -379 1 -205 4 -377 8 -383 3 -5 18 -124 32 -264 14 -139 30
-260 36 -268 6 -10 6 64 1 210 -4 124 -8 335 -7 470 0 269 10 342 75 549 34
109 56 135 189 222 97 64 160 83 261 77 70 -4 89 -10 180 -56 57 -29 104 -51
105 -49 2 2 11 32 21 68 12 42 18 100 18 170 0 102 -1 107 -39 184 -51 104
-195 250 -271 278 -61 21 -242 22 -356 1z"/>
<path d="M7268 16111 c26 -78 50 -141 53 -141 8 0 178 215 185 234 5 13 -42
21 -228 42 l-57 6 47 -141z"/>
<path d="M6607 16225 c-48 -7 -90 -15 -92 -17 -2 -2 35 -52 82 -112 47 -59 88
-104 92 -99 8 9 101 229 101 238 0 8 -89 4 -183 -10z"/>
<path d="M15475 16217 c-63 -30 -198 -163 -243 -239 -46 -78 -65 -157 -59
-243 6 -77 36 -215 47 -215 4 0 33 16 65 35 142 85 283 98 405 38 36 -18 101
-60 146 -93 l81 -61 32 -102 c73 -235 97 -446 81 -727 -5 -96 -12 -254 -15
-350 -9 -245 9 -202 40 97 14 131 30 263 36 293 6 32 9 136 8 245 -2 105 -2
261 -1 348 l2 158 38 -3 37 -3 2 -340 c2 -267 -1 -362 -13 -441 -21 -134 -15
-157 18 -69 21 57 27 95 32 205 4 74 14 200 22 279 8 79 14 166 14 192 l0 49
40 0 40 0 0 -49 c0 -27 -6 -111 -14 -187 -8 -77 -17 -204 -21 -284 -7 -154
-26 -230 -82 -328 -32 -56 -25 -62 15 -13 41 50 98 205 111 301 6 41 25 150
43 243 32 164 33 167 58 167 55 0 56 -5 22 -172 -17 -84 -37 -193 -43 -243 -8
-54 -28 -132 -50 -193 -34 -91 -48 -115 -119 -200 -76 -91 -125 -172 -186
-310 l-25 -57 32 30 c105 99 279 342 412 575 64 113 66 117 78 225 19 161 16
466 -4 601 -41 267 -139 485 -280 627 -69 68 -126 108 -222 153 -121 58 -200
75 -375 80 -148 5 -157 4 -205 -19z"/>
<path d="M6766 16071 c-37 -89 -71 -159 -75 -157 -4 3 -50 59 -101 125 -52 67
-97 121 -100 121 -8 0 -90 -281 -90 -307 0 -16 -6 -23 -20 -23 -15 0 -20 7
-20 28 0 23 -15 42 -77 98 -43 38 -95 84 -116 103 -45 41 -53 35 -63 -46 -6
-48 -4 -55 32 -108 42 -64 105 -115 141 -115 14 0 59 9 102 20 315 80 729 94
1073 36 79 -14 151 -28 161 -32 15 -5 17 -3 12 17 -8 35 -65 342 -65 352 0 17
-22 -8 -134 -153 -64 -83 -118 -150 -120 -150 -3 0 -30 77 -61 170 -31 94 -58
170 -60 170 -2 0 -45 -65 -96 -145 -50 -80 -95 -145 -98 -145 -3 0 -40 68 -82
151 l-75 151 -68 -161z"/>
<path d="M6302 16166 c-73 -18 -135 -35 -138 -38 -3 -3 43 -49 102 -103 l107
-97 38 124 c40 127 44 149 32 147 -5 0 -68 -15 -141 -33z"/>
<path d="M7600 16189 c0 -14 51 -283 54 -286 2 -3 142 157 180 204 10 13 16
26 14 28 -4 4 -157 45 -220 59 -18 4 -28 2 -28 -5z"/>
<path d="M13028 16193 c-10 -2 -18 -6 -18 -9 0 -2 25 -55 56 -116 l56 -111 74
114 c40 63 74 117 74 122 0 7 -213 8 -242 0z"/>
<path d="M12780 16173 c-63 -8 -119 -18 -123 -22 -7 -7 140 -209 154 -210 3
-1 21 38 41 87 20 48 43 104 52 125 12 28 13 37 4 36 -7 -1 -65 -8 -128 -16z"/>
<path d="M13397 16055 c24 -74 48 -135 51 -135 10 1 185 230 179 236 -5 6
-211 34 -249 34 l-27 0 46 -135z"/>
<path d="M12951 16160 c-6 -14 -37 -87 -70 -164 l-58 -138 -104 131 c-56 72
-104 130 -104 128 -11 -14 -85 -283 -85 -306 0 -24 -4 -31 -20 -31 -15 0 -20
7 -20 28 0 24 -20 47 -120 135 l-119 107 -10 -37 c-24 -94 -24 -102 3 -147 37
-63 124 -139 150 -131 73 21 252 58 371 76 110 17 187 22 360 22 221 1 293 -6
503 -44 62 -12 116 -19 119 -16 6 7 -59 367 -67 367 -3 0 -59 -70 -125 -155
-66 -85 -123 -151 -126 -147 -4 4 -31 80 -60 170 -29 89 -56 162 -59 162 -3 0
-45 -65 -95 -145 -49 -79 -92 -144 -95 -145 -3 0 -40 69 -82 153 -71 142 -77
150 -87 127z"/>
<path d="M12435 16109 c-66 -16 -126 -31 -133 -34 -7 -2 31 -44 89 -96 56 -51
104 -88 109 -83 4 5 22 56 40 114 17 58 33 111 35 118 6 16 -2 15 -140 -19z"/>
<path d="M13730 16128 c0 -22 43 -243 50 -256 5 -10 35 19 100 93 69 79 90
109 80 115 -12 7 -210 60 -225 60 -3 0 -5 -5 -5 -12z"/>
<path d="M7765 15965 c-70 -80 -124 -150 -119 -154 5 -5 31 -14 58 -20 41 -10
52 -9 75 5 66 42 105 92 139 179 l20 50 -22 44 -23 43 -128 -147z"/>
<path d="M13888 15912 l-128 -147 58 -18 c31 -9 66 -15 77 -12 42 9 104 76
141 151 l37 74 -23 50 c-13 28 -26 50 -29 50 -3 0 -63 -66 -133 -148z"/>
<path d="M6845 15840 c-142 -9 -299 -32 -447 -67 l-108 -25 0 -244 0 -244 75
0 75 0 0 250 0 250 85 0 85 0 0 -250 0 -250 75 0 75 0 0 250 0 250 85 0 85 0
0 -250 0 -251 83 3 82 3 3 248 2 247 80 0 80 0 2 -247 3 -248 68 -3 67 -3 0
251 0 250 85 0 85 0 0 -250 0 -250 65 0 65 0 0 29 c0 34 17 309 25 394 6 70
14 65 -194 107 -237 47 -464 64 -686 50z"/>
<path d="M12920 15790 c-129 -12 -273 -35 -402 -66 l-108 -26 0 -219 0 -219
80 0 80 0 0 225 0 225 85 0 85 0 0 -225 0 -226 73 3 72 3 3 223 2 222 85 0 85
0 0 -225 0 -225 80 0 80 0 0 225 0 225 85 0 85 0 0 -225 0 -225 65 0 65 0 0
225 0 225 85 0 85 0 2 -222 3 -223 71 -3 71 -3 6 93 c4 51 10 149 13 218 l7
126 -118 28 c-257 60 -593 87 -825 66z"/>
<path d="M2331 15349 c-78 -13 -184 -53 -248 -91 -109 -65 -242 -218 -315
-363 -21 -40 -27 -72 -33 -157 -4 -60 -4 -108 -1 -108 4 0 32 11 64 24 144 60
355 109 522 122 103 7 236 -6 330 -33 283 -80 505 -317 644 -687 14 -38 40
-84 57 -104 29 -33 53 -79 104 -200 38 -88 186 -191 413 -286 62 -26 63 -26
120 -10 31 10 93 25 136 33 l80 17 -70 41 c-127 75 -273 216 -396 378 -24 33
-96 134 -158 225 -150 219 -204 288 -306 391 l-84 86 20 26 c12 15 27 27 35
27 17 0 148 -140 229 -244 35 -45 114 -155 176 -246 254 -371 392 -512 613
-625 86 -44 90 -45 183 -45 52 0 94 3 94 6 0 4 -30 51 -67 106 -53 78 -82 110
-143 155 -153 115 -296 271 -427 468 -33 50 -130 209 -217 354 -153 257 -297
481 -320 500 -6 5 -128 62 -271 127 l-260 118 -225 3 c-124 1 -249 -2 -279 -8z"/>
<path d="M17577 15349 l-129 -8 -261 -120 -262 -119 -68 -98 c-38 -55 -127
-198 -199 -319 -286 -481 -354 -579 -511 -741 -54 -56 -134 -128 -178 -160
-66 -49 -92 -77 -149 -161 -39 -56 -70 -104 -70 -107 0 -3 43 -6 95 -6 91 0
99 2 173 39 223 113 365 254 603 601 183 267 330 451 401 501 l30 22 26 -26
26 -26 -90 -93 c-107 -112 -146 -161 -314 -405 -71 -103 -157 -222 -191 -265
-85 -108 -223 -236 -329 -306 l-89 -59 72 -13 c40 -7 100 -21 134 -31 68 -21
63 -22 198 38 175 78 296 166 336 245 10 20 28 62 40 93 12 31 40 80 63 108
23 29 54 86 70 127 196 512 541 750 1016 701 168 -17 351 -65 524 -136 19 -8
19 -4 13 105 -6 102 -10 118 -38 169 -125 222 -274 358 -454 414 -115 37 -288
49 -488 36z"/>
<path d="M5570 11106 c0 -4081 0 -4115 20 -4233 25 -148 80 -356 126 -482 52
-140 192 -419 275 -546 141 -217 266 -365 471 -563 l107 -104 3 -626 c3 -560
6 -633 21 -687 71 -245 259 -374 451 -309 67 23 147 100 180 173 48 108 51
142 38 531 -7 195 -12 376 -12 403 l0 47 108 -54 c818 -409 1750 -616 2777
-616 292 0 504 11 773 41 672 73 1340 253 1861 500 68 33 126 57 129 54 3 -2
-1 -166 -8 -362 -14 -399 -10 -444 41 -550 123 -256 452 -239 584 30 62 126
65 164 65 771 l0 542 145 128 c538 475 859 1036 965 1687 20 123 20 155 20
4232 l0 4107 -4570 0 -4570 0 0 -4114z m9050 -50 c0 -4005 0 -4076 -20 -4188
-10 -62 -30 -153 -42 -203 l-23 -90 -42 -3 c-24 -2 -43 -1 -43 2 0 2 14 46 31
98 16 51 46 156 65 232 l34 140 0 3505 c0 1929 -3 3739 -7 4024 l-6 517 -4424
0 -4423 0 0 -4099 0 -4099 35 -119 c47 -162 57 -193 64 -193 3 0 18 20 34 44
l27 43 0 262 c0 154 4 261 9 261 5 0 59 48 120 106 l111 106 0 -216 0 -216
175 0 175 0 0 1170 0 1170 63 0 c34 0 99 3 144 7 l83 6 2 1011 3 1011 3361 3
3361 2 6 -107 c4 -58 7 -460 7 -893 0 -433 3 -842 7 -908 l6 -122 124 0 123 0
0 -1190 0 -1190 190 0 190 0 0 42 c0 23 3 38 7 34 4 -4 58 44 120 106 l113
113 0 -295 0 -295 25 -38 c23 -33 24 -37 8 -37 -12 0 -63 60 -146 170 l-127
170 -678 0 c-372 0 -1937 7 -3477 15 -1540 8 -3043 15 -3340 15 l-540 0 -125
-185 -125 -185 -54 3 -54 2 -19 65 c-10 36 -30 125 -43 198 l-25 133 0 4080 0
4079 4480 0 4480 0 0 -4074z m-8490 3669 c0 -197 -3 -255 -12 -255 -7 -1 -62
-48 -123 -105 l-110 -104 -3 249 -2 249 52 48 c29 26 80 76 114 111 33 34 66
62 72 62 9 0 12 -68 12 -255z m140 155 l0 -40 -50 0 -50 0 0 40 0 40 50 0 50
0 0 -40z m850 0 l0 -40 -195 0 -195 0 0 40 0 40 195 0 195 0 0 -40z m850 0 l0
-40 -195 0 -195 0 0 40 0 40 195 0 195 0 0 -40z m860 0 l0 -40 -190 0 -190 0
0 40 0 40 190 0 190 0 0 -40z m860 0 l0 -40 -195 0 -195 0 0 40 0 40 195 0
195 0 0 -40z m860 0 l0 -40 -195 0 -195 0 0 40 0 40 195 0 195 0 0 -40z m850
0 l0 -40 -195 0 -195 0 0 40 0 40 195 0 195 0 0 -40z m860 -5 l0 -45 -192 2
-193 3 -3 43 -3 42 195 0 196 0 0 -45z m870 0 l0 -45 -190 0 -190 0 0 45 0 45
190 0 190 0 0 -45z m860 5 l0 -40 -195 0 -195 0 0 40 0 40 195 0 195 0 0 -40z
m390 -222 c0 -144 -3 -258 -7 -254 -4 4 -58 -44 -120 -106 l-112 -112 -3 257
-3 257 119 110 c65 60 120 110 122 110 2 0 4 -118 4 -262z m-7680 112 l0 -140
-205 0 -205 0 0 140 0 140 205 0 205 0 0 -140z m870 -2 l0 -143 -205 3 -205 3
0 139 0 140 205 0 205 0 0 -142z m850 2 l0 -139 -205 -3 -205 -3 0 143 0 142
205 0 205 0 0 -140z m870 0 l0 -140 -205 0 -205 0 0 140 0 140 205 0 205 0 0
-140z m830 0 l0 -139 -200 -3 -200 -3 0 143 0 142 200 0 200 0 0 -140z m880 0
l0 -140 -205 0 -205 0 0 140 0 140 205 0 205 0 0 -140z m860 0 l0 -140 -205 0
-205 0 0 140 0 140 205 0 205 0 0 -140z m870 -2 l0 -143 -200 3 -200 3 0 139
0 140 200 0 200 0 0 -142z m840 0 l0 -143 -200 3 -200 3 0 139 0 140 200 0
200 0 0 -142z m550 -53 l0 -135 -40 0 -40 0 0 135 0 135 40 0 40 0 0 -135z
m-7850 -95 l0 -160 -50 0 -50 0 0 160 0 160 50 0 50 0 0 -160z m860 -15 l0
-145 -200 0 -200 0 0 145 0 145 200 0 200 0 0 -145z m840 0 l0 -145 -185 0
-185 0 0 145 0 145 185 0 185 0 0 -145z m880 0 l0 -145 -200 0 -200 0 0 145 0
145 200 0 200 0 0 -145z m840 0 l0 -145 -185 0 -185 0 0 145 0 145 185 0 185
0 0 -145z m870 0 l0 -145 -202 2 -203 3 -3 143 -3 142 206 0 205 0 0 -145z
m840 0 l0 -145 -185 0 -185 0 0 145 0 145 185 0 185 0 0 -145z m898 3 l-3
-143 -202 -3 -203 -2 0 145 0 145 205 0 206 0 -3 -142z m832 -3 l0 -145 -185
0 -185 0 0 145 0 145 185 0 185 0 0 -145z m880 0 l0 -145 -205 0 -205 0 0 145
0 145 205 0 205 0 0 -145z m120 -125 l0 -50 -45 0 -45 0 0 50 0 50 45 0 45 0
0 -50z m-7450 -10 l0 -50 -187 2 -188 3 -3 48 -3 47 190 0 191 0 0 -50z m880
0 l0 -50 -190 0 -190 0 0 50 0 50 190 0 190 0 0 -50z m860 0 l0 -50 -185 0
-185 0 0 50 0 50 185 0 185 0 0 -50z m850 0 l0 -50 -185 0 -185 0 0 50 0 50
185 0 185 0 0 -50z m852 0 l-4 -50 -184 0 -184 0 0 50 0 50 188 0 187 0 -3
-50z m858 0 l0 -50 -190 0 -190 0 0 50 0 50 190 0 190 0 0 -50z m860 0 l0 -50
-190 0 -190 0 0 50 0 50 190 0 190 0 0 -50z m860 0 l0 -50 -184 0 -184 0 -4
50 -3 50 188 0 187 0 0 -50z m870 0 l0 -50 -185 0 -185 0 0 50 0 50 185 0 185
0 0 -50z m-7440 -299 c0 -217 -2 -260 -14 -263 -8 -2 -64 -49 -125 -106 l-111
-104 0 268 c0 147 3 264 7 261 3 -4 55 40 114 98 59 58 112 105 118 105 8 0
11 -82 11 -259z m8250 -73 c0 -149 -3 -268 -7 -265 -4 4 -56 -41 -117 -100
l-111 -108 -3 262 -2 263 42 37 c24 21 77 70 118 110 41 40 76 73 78 73 1 0 2
-122 2 -272z m-3372 238 c671 -55 1164 -156 1424 -293 122 -64 164 -139 136
-243 -8 -30 -18 -62 -22 -72 -6 -13 3 -19 50 -33 134 -39 217 -100 230 -171
13 -68 -1 -168 -30 -220 -22 -39 -24 -50 -14 -60 7 -7 114 -71 238 -143 l225
-130 187 -173 c128 -118 182 -174 170 -176 -9 -1 -170 16 -356 38 -187 22
-341 38 -343 36 -3 -2 21 -89 53 -193 69 -229 154 -553 145 -553 -4 0 -42 24
-84 54 -55 39 -110 92 -189 183 l-111 128 -145 78 -145 79 -112 8 c-171 13
-245 38 -303 104 -17 20 -34 52 -38 72 -9 49 2 121 26 161 l19 33 -92 0 c-235
1 -376 51 -407 146 -11 32 -8 43 44 156 31 67 55 122 53 123 -1 1 -45 18 -97
38 -72 28 -163 49 -380 89 l-285 52 -435 0 c-494 0 -871 -16 -1075 -45 -126
-18 -576 -98 -583 -104 -5 -5 77 -213 98 -247 27 -44 26 -83 -4 -113 -31 -31
-50 -33 -309 -38 -120 -3 -220 -7 -223 -10 -3 -2 11 -52 31 -110 39 -119 41
-136 20 -177 -31 -59 -149 -93 -290 -84 -149 11 -272 -32 -424 -147 -82 -61
-217 -197 -304 -305 -28 -35 -54 -64 -59 -64 -15 0 -8 123 11 210 25 108 67
226 135 379 l54 120 -45 7 c-25 4 -132 4 -237 1 -156 -5 -211 -10 -301 -31
-60 -14 -112 -26 -114 -26 -11 0 111 119 213 206 158 136 382 283 549 359 54
25 56 27 50 58 -3 18 -18 64 -33 102 -38 96 -44 129 -30 170 16 47 55 66 210
100 69 15 126 28 127 29 1 1 -14 37 -33 80 -44 99 -52 152 -30 194 20 39 23
40 176 91 445 149 1056 251 1735 291 233 13 1047 4 1273 -14z m-4880 -743 c-2
-153 -7 -276 -12 -274 -4 2 -47 -34 -95 -81 -47 -46 -98 -94 -113 -108 l-28
-23 0 281 c0 221 3 282 13 282 7 0 57 45 112 100 55 55 105 100 112 100 11 0
13 -57 11 -277z m8252 -80 c0 -157 -3 -283 -7 -279 -4 4 -58 -44 -120 -106
l-113 -113 1 285 1 285 115 108 c63 59 117 107 119 107 2 0 4 -129 4 -287z
m-8250 -513 c0 -242 -2 -280 -15 -280 -8 0 -64 -48 -125 -106 l-110 -107 0
288 c0 159 3 286 6 282 4 -3 57 41 118 98 61 58 114 105 118 105 5 0 8 -126 8
-280z m8218 -388 c-18 -14 -72 -64 -120 -111 l-88 -85 0 282 0 282 48 42 c26
24 79 73 117 110 l70 67 3 -280 2 -280 -32 -27z m-8220 -205 l-3 -272 -75 -71
c-41 -39 -96 -90 -122 -114 l-48 -43 0 284 1 284 53 44 c30 24 82 72 117 107
34 35 66 61 71 58 5 -3 8 -127 6 -277z m8252 -103 c0 -162 -4 -293 -8 -290 -5
3 -46 -33 -93 -80 -46 -47 -96 -94 -111 -105 l-28 -20 0 290 c0 228 3 291 13
291 7 0 59 47 117 105 58 58 106 105 107 105 2 0 3 -133 3 -296z m-8260 -500
c0 -151 -4 -273 -8 -270 -5 3 -46 -33 -93 -80 -46 -47 -96 -94 -111 -105 l-28
-20 0 277 c0 153 3 274 6 271 4 -4 56 41 116 98 60 58 111 105 114 105 2 0 4
-124 4 -276z m8260 -105 c0 -154 -4 -278 -8 -275 -5 3 -55 -42 -113 -100 -57
-57 -107 -104 -111 -104 -5 0 -8 123 -7 273 l1 272 114 108 c63 59 117 107
119 107 3 0 5 -126 5 -281z m-8302 -756 c-24 -21 -78 -71 -120 -112 l-78 -74
0 273 c0 150 3 271 6 267 4 -3 57 41 118 98 l111 104 3 -259 2 -260 -42 -37z
m8302 177 c0 -207 -3 -270 -12 -270 -7 0 -61 -48 -120 -107 l-108 -108 1 270
1 270 116 108 c64 59 118 107 119 107 2 0 3 -121 3 -270z m-8260 -457 c0 -152
-3 -273 -7 -270 -4 4 -56 -41 -117 -100 l-111 -108 -3 269 -2 269 22 15 c13 9
66 57 118 109 52 51 96 93 98 93 1 0 2 -124 2 -277z m8260 -125 c0 -155 -3
-279 -6 -275 -4 3 -57 -41 -118 -99 l-111 -105 -3 271 -2 271 32 27 c18 14 71
63 118 109 47 45 86 83 88 83 1 0 2 -127 2 -282z m-8261 -460 l-1 -283 -119
-108 -119 -109 0 292 c0 160 3 289 8 287 4 -3 57 42 117 99 61 57 111 103 113
104 1 0 2 -127 1 -282z m8261 -140 c0 -160 -3 -288 -7 -284 -4 4 -58 -44 -120
-106 l-113 -113 0 286 0 286 113 111 c61 62 115 112 120 112 4 0 7 -131 7
-292z m-8260 -469 c0 -154 -4 -278 -8 -275 -5 3 -37 -24 -73 -60 -35 -36 -85
-84 -111 -106 l-48 -40 0 281 c0 220 3 281 13 281 7 0 57 45 112 100 55 55
103 100 107 100 5 0 8 -126 8 -281z m8228 -437 c-18 -14 -72 -64 -120 -111
l-88 -85 0 282 0 282 48 42 c26 24 79 73 117 110 l70 67 3 -280 2 -280 -32
-27z m-8250 -440 c-13 -9 -64 -55 -114 -104 -49 -48 -93 -88 -97 -88 -4 0 -7
127 -7 282 0 155 3 279 6 275 4 -3 57 41 118 98 l111 105 3 -276 2 -277 -22
-15z m8282 137 c0 -159 -4 -288 -8 -285 -5 3 -24 -11 -43 -30 -19 -20 -69 -67
-111 -106 l-78 -70 0 286 c0 224 3 286 13 286 7 0 59 47 117 105 58 58 106
105 107 105 2 0 3 -131 3 -291z m-8332 -756 c-40 -38 -94 -89 -120 -113 l-48
-43 0 269 1 269 53 44 c30 24 83 72 117 108 l64 64 3 -265 2 -264 -72 -69z
m8332 165 c0 -155 -3 -278 -7 -274 -4 4 -58 -44 -120 -106 l-113 -113 0 271 0
271 118 116 c64 64 118 117 120 117 1 0 2 -127 2 -282z m-8292 -726 c-18 -14
-69 -61 -114 -104 -44 -43 -83 -78 -87 -78 -4 0 -7 127 -7 282 0 155 3 278 6
275 4 -4 57 41 118 100 l111 106 3 -277 2 -277 -32 -27z m8292 128 c0 -163 -4
-289 -9 -287 -5 1 -59 -44 -120 -101 l-111 -104 1 284 1 283 116 107 c65 59
118 107 120 108 1 0 2 -131 2 -290z m126 -1057 c-27 -105 -155 -380 -251 -537
-550 -906 -1678 -1536 -3130 -1750 -581 -86 -1226 -93 -1810 -20 -807 101
-1594 359 -2196 722 -281 169 -491 334 -705 554 -221 227 -374 443 -505 713
-55 112 -139 319 -139 340 0 3 1967 5 4371 5 l4371 0 -6 -27z m-7690 -1498
l33 -25 3 -518 3 -517 25 -50 c21 -43 29 -50 54 -50 20 0 35 9 50 28 19 26 21
47 27 230 4 111 8 327 8 480 1 152 4 277 7 277 4 0 22 -10 41 -21 l34 -22 -3
-451 c-3 -446 -3 -452 -26 -501 -29 -63 -56 -91 -98 -105 -48 -16 -96 2 -138
51 -64 76 -66 93 -66 687 0 293 3 532 7 532 3 0 21 -11 39 -25z m6566 -892
c-8 -196 -9 -203 -38 -260 -66 -129 -192 -134 -256 -10 -18 36 -23 68 -30 220
-5 98 -7 291 -6 430 l3 251 33 19 c18 11 35 17 37 15 3 -2 7 -188 10 -414 4
-233 11 -427 17 -451 21 -86 77 -97 118 -23 25 44 25 49 31 340 4 162 7 379 8
481 l1 186 38 25 37 25 3 -316 c1 -173 -1 -407 -6 -518z"/>
<path d="M9932 10791 c-95 -121 -172 -222 -172 -225 0 -3 165 -6 366 -6 221 0
364 4 362 9 -5 16 -368 441 -376 441 -5 0 -85 -99 -180 -219z"/>
<path d="M7945 10664 c-115 -30 -183 -72 -215 -133 -11 -22 -20 -43 -20 -46 0
-3 130 -5 289 -5 l290 0 -10 29 c-17 48 -75 107 -129 130 -51 22 -164 35 -205
25z"/>
<path d="M12160 10654 c-69 -19 -144 -66 -170 -109 -42 -67 -52 -65 265 -65
157 0 285 2 285 5 0 3 -9 23 -20 44 -57 113 -208 166 -360 125z"/>
<path d="M9640 9950 l0 -280 500 0 500 0 0 280 0 280 -500 0 -500 0 0 -280z"/>
<path d="M7660 9840 l0 -240 340 0 340 0 -2 238 -3 237 -337 3 -338 2 0 -240z"/>
<path d="M11897 10073 c-4 -3 -7 -111 -7 -240 l0 -233 340 0 340 0 0 240 0
240 -333 0 c-184 0 -337 -3 -340 -7z"/>
<path d="M7810 8580 c-157 -41 -363 -164 -512 -308 l-68 -65 0 -624 0 -623 25
0 25 0 0 594 0 595 76 68 c161 145 297 229 444 274 97 30 271 33 368 6 141
-38 273 -120 414 -256 l98 -93 2 -597 c3 -558 4 -596 21 -599 16 -3 17 32 17
631 l0 634 -75 72 c-161 152 -323 251 -480 291 -103 26 -252 26 -355 0z"/>
<path d="M9965 8581 c-179 -46 -326 -133 -517 -304 l-78 -70 0 -629 0 -629 28
3 27 3 3 597 2 596 83 77 c45 42 126 106 180 142 358 239 697 197 1041 -128
l96 -91 2 -601 c3 -564 4 -602 21 -605 16 -3 17 32 17 630 l0 634 -92 90
c-143 139 -293 235 -438 279 -85 26 -287 30 -375 6z"/>
<path d="M12321 8589 c-180 -35 -382 -153 -568 -333 l-53 -50 0 -633 0 -633
25 0 25 0 0 598 0 599 69 67 c96 95 211 179 316 231 128 63 197 80 335 80 100
0 127 -4 203 -29 49 -16 124 -50 168 -77 91 -54 234 -172 285 -234 l34 -42 0
-602 c0 -568 1 -602 18 -599 16 3 17 43 20 639 l2 637 -91 86 c-221 211 -427
307 -648 305 -53 -1 -116 -5 -140 -10z"/>
<path d="M7848 8465 c-152 -37 -313 -134 -465 -279 l-63 -59 0 -584 0 -583
665 0 665 0 0 583 0 582 -83 80 c-143 138 -292 227 -430 260 -77 18 -213 18
-289 0z"/>
<path d="M9980 8459 c-92 -24 -176 -63 -265 -122 -95 -64 -244 -196 -250 -221
-3 -12 -4 -277 -3 -591 l3 -570 663 -3 662 -2 0 589 0 588 -67 68 c-238 238
-494 329 -743 264z"/>
<path d="M12307 8461 c-143 -39 -290 -126 -437 -259 l-80 -73 0 -595 0 -594
665 0 665 0 0 593 0 594 -77 75 c-199 192 -381 279 -582 277 -50 0 -114 -8
-154 -18z"/>
<path d="M9925 14313 c-761 -30 -1407 -129 -1907 -293 -154 -51 -163 -56 -162
-107 2 -43 51 -161 102 -241 41 -66 61 -110 127 -292 65 -178 75 -200 91 -200
7 0 77 23 156 50 341 120 918 229 1328 250 321 17 779 26 1010 19 189 -6 227
-10 490 -58 242 -44 303 -58 403 -97 64 -25 117 -50 117 -55 0 -5 7 -9 15 -9
22 0 250 -75 336 -111 40 -16 88 -41 107 -55 18 -15 37 -22 42 -18 5 5 72 142
149 304 77 162 145 302 151 310 52 75 64 162 30 217 -65 108 -465 234 -970
307 -462 67 -1118 99 -1615 79z m32 -370 c46 -114 81 -208 80 -210 -2 -1 -28
-5 -59 -9 l-56 -6 -12 36 c-11 33 -15 36 -50 36 -76 0 -99 -10 -106 -45 -5
-31 -8 -33 -62 -38 -31 -3 -57 -5 -59 -3 -1 1 23 100 55 219 39 150 61 218 72
221 8 2 38 4 65 5 l50 1 82 -207z m913 175 c0 -13 -5 -112 -12 -220 l-12 -198
-40 0 c-67 0 -67 0 -56 150 5 74 8 135 6 138 -2 2 -22 -6 -45 -17 -54 -28 -75
-28 -67 2 3 12 6 32 6 44 0 16 11 27 43 41 24 11 54 33 68 50 20 26 31 31 67
31 37 1 42 -2 42 -21z m-1345 -44 c48 -51 45 -127 -7 -181 -29 -30 -29 -31
-10 -37 18 -6 112 -137 112 -156 0 -7 -73 -20 -110 -20 -10 0 -32 25 -55 62
-45 72 -69 98 -91 98 -14 0 -15 -8 -10 -57 4 -32 10 -72 13 -90 5 -34 2 -36
-87 -45 l-25 -3 -26 210 c-14 116 -25 212 -22 214 7 9 159 29 226 30 61 1 70
-2 92 -25z m1698 -1 c18 -10 42 -39 55 -63 21 -40 23 -55 19 -130 -5 -96 -28
-160 -71 -200 -24 -21 -37 -25 -91 -25 -75 0 -109 20 -139 79 -10 20 -17 38
-15 40 2 1 27 0 54 -2 40 -3 53 -8 60 -25 21 -47 66 -25 84 40 11 40 7 53 -11
35 -19 -19 -92 -15 -120 8 -37 29 -61 95 -53 147 7 45 44 99 79 114 30 13 113
3 149 -18z m-2108 -35 c2 -7 6 -26 7 -43 3 -29 2 -29 -76 -45 -83 -16 -92 -24
-81 -67 6 -24 9 -25 48 -20 23 4 56 9 73 13 30 6 31 4 37 -32 7 -45 1 -50 -63
-59 -73 -10 -75 -13 -62 -94 17 -101 18 -97 -40 -109 -29 -5 -54 -9 -56 -8 -5
6 -74 418 -70 422 6 6 227 52 256 53 12 1 25 -5 27 -11z m2461 -43 l111 -28
-7 -39 c-4 -21 -10 -42 -14 -45 -5 -5 -108 18 -152 34 -7 2 -16 -10 -22 -26
-11 -30 -10 -31 18 -31 137 0 195 -157 95 -257 -29 -29 -39 -33 -87 -33 -94 0
-178 64 -178 135 0 18 5 20 45 17 41 -4 47 -8 59 -37 17 -40 30 -49 60 -41 41
10 61 92 33 131 -11 14 -22 17 -56 12 -43 -5 -111 14 -111 32 0 27 74 212 84
208 6 -2 61 -16 122 -32z m-2842 -42 c16 -51 56 -257 56 -287 0 -78 -46 -138
-124 -161 -107 -32 -178 -9 -214 68 -23 49 -76 282 -69 301 3 8 22 17 42 20
20 4 42 9 49 12 9 3 17 -14 25 -53 48 -219 53 -234 77 -250 31 -20 69 -10 90
22 15 23 14 34 -16 171 -17 80 -30 147 -28 149 5 5 72 23 90 24 9 1 19 -7 22
-16z m1656 -68 l0 -45 -75 0 -75 0 0 45 0 45 75 0 75 0 0 -45z m1604 -5 c4 -5
-14 -101 -40 -214 -54 -230 -46 -217 -124 -183 l-27 12 32 135 c18 74 32 136
30 138 -1 1 -14 -2 -29 -8 -15 -5 -41 -10 -57 -10 -29 0 -30 1 -23 38 9 50 8
49 55 55 25 3 56 17 78 35 31 26 40 28 66 19 17 -5 34 -13 39 -17z"/>
<path d="M9800 13973 c-6 -32 -14 -66 -16 -75 -5 -15 2 -18 40 -18 l45 0 -25
72 c-13 39 -26 73 -28 75 -2 3 -9 -22 -16 -54z"/>
<path d="M9330 13992 c0 -11 3 -33 6 -49 6 -29 7 -30 46 -23 50 9 60 20 56 56
-3 27 -6 29 -55 32 -47 3 -53 1 -53 -16z"/>
<path d="M11106 13998 c-22 -31 -20 -84 4 -108 26 -26 36 -25 65 5 43 42 23
125 -30 125 -13 0 -31 -10 -39 -22z"/>
<path d="M12350 13354 c-92 -193 -165 -333 -179 -345 -38 -31 -84 -33 -341
-17 -135 8 -246 13 -248 12 -12 -8 24 -45 61 -63 65 -31 183 -44 337 -36 123
6 145 4 240 -19 125 -30 210 -58 254 -85 l31 -20 89 202 c49 111 111 243 138
293 76 144 77 253 2 310 -18 14 -77 41 -131 60 -54 19 -98 34 -98 34 0 0 -70
-147 -155 -326z"/>
<path d="M7835 13639 c-237 -54 -245 -58 -245 -116 0 -19 11 -62 25 -96 13
-34 34 -93 46 -132 21 -69 165 -461 176 -478 3 -5 15 1 27 12 34 32 87 50 244
83 176 37 270 46 505 47 102 1 187 5 198 11 21 12 25 47 6 71 -11 15 -24 15
-147 2 -230 -25 -392 -8 -481 51 -47 32 -71 77 -134 256 -49 139 -116 294
-131 302 -5 3 -45 -3 -89 -13z"/>
<path d="M8605 13275 c-119 -31 -405 -128 -405 -137 0 -13 73 -45 128 -57 100
-21 468 -2 459 23 -2 6 -20 53 -38 103 -19 51 -38 93 -44 92 -5 0 -50 -11
-100 -24z"/>
<path d="M11613 13154 c-24 -53 -41 -99 -38 -103 6 -10 460 -35 518 -29 56 7
65 13 51 35 -19 31 -128 82 -279 132 -227 75 -202 78 -252 -35z"/>
<path d="M7518 13162 c-189 -97 -386 -234 -543 -377 l-40 -36 45 6 c135 20
556 23 574 4 4 -3 -24 -73 -60 -155 -74 -166 -139 -353 -150 -429 l-7 -50 107
112 c169 177 283 259 430 308 66 22 92 25 194 24 169 -2 234 14 268 66 15 24
12 65 -6 65 -5 0 -62 -7 -127 -16 -215 -28 -316 -20 -360 29 -11 12 -60 129
-108 260 -48 131 -92 240 -96 243 -4 2 -59 -22 -121 -54z"/>
<path d="M12715 13158 c-13 -29 -64 -143 -112 -253 -88 -199 -89 -200 -133
-222 -60 -30 -209 -47 -328 -38 -52 3 -100 9 -108 12 -29 11 -13 -27 26 -60
52 -45 127 -65 266 -74 l109 -6 157 -85 157 -85 108 -127 c89 -105 157 -170
176 -170 7 0 -78 310 -138 503 -31 103 -55 190 -52 193 2 2 142 -12 311 -31
169 -20 314 -35 323 -33 9 2 -36 50 -121 128 -102 93 -163 140 -239 184 -56
32 -162 94 -236 137 -73 44 -135 79 -138 79 -2 0 -15 -24 -28 -52z"/>
<path d="M8096 12870 c-174 -38 -236 -69 -236 -117 0 -16 44 -38 94 -47 40 -8
345 21 359 34 4 4 -3 40 -16 81 -28 90 -22 88 -201 49z"/>
<path d="M12067 12838 c-32 -43 -43 -66 -50 -104 -8 -40 0 -43 148 -51 162 -8
310 19 310 57 0 32 -184 99 -341 125 -39 6 -44 4 -67 -27z"/>
<path d="M6800 5951 l0 -241 45 0 44 0 3 147 3 147 90 -147 90 -147 53 0 52 0
-2 238 -3 237 -42 3 -43 3 0 -157 c0 -87 -3 -154 -7 -150 -5 4 -49 73 -99 154
l-90 147 -47 3 -47 3 0 -240z"/>
<path d="M7431 6172 c-6 -10 -47 -113 -91 -228 -45 -115 -84 -215 -87 -221 -4
-10 10 -13 49 -13 l53 0 18 50 18 51 96 -3 95 -3 18 -45 18 -45 55 -3 56 -3
-91 228 c-50 125 -96 234 -101 241 -15 20 -94 15 -106 -6z m83 -186 c14 -37
26 -72 26 -77 0 -5 -25 -9 -55 -9 -30 0 -55 3 -55 8 0 11 52 153 56 150 1 -2
14 -34 28 -72z"/>
<path d="M7717 6183 c-4 -3 -7 -24 -7 -45 l0 -38 70 0 70 0 0 -195 0 -195 50
0 50 0 0 195 0 195 70 0 70 0 0 45 0 45 -183 0 c-101 0 -187 -3 -190 -7z"/>
<path d="M8177 6183 c-11 -11 -8 -308 4 -362 12 -59 58 -106 114 -117 63 -11
162 0 192 23 59 43 64 65 66 270 l2 188 -50 0 -50 0 -3 -181 c-2 -169 -4 -183
-23 -200 -30 -27 -103 -24 -132 5 -21 20 -22 32 -25 201 l-3 180 -43 0 c-23 0
-46 -3 -49 -7z"/>
<path d="M8678 6185 c-5 -5 -8 -113 -8 -242 l0 -233 50 0 50 0 0 95 0 95 38 0
c45 0 58 -12 127 -117 l48 -73 59 0 60 0 -23 38 c-42 69 -77 117 -103 141
l-26 24 38 17 c50 23 74 61 74 120 0 54 -22 94 -64 116 -31 16 -307 32 -320
19z m266 -101 c20 -19 21 -68 2 -83 -7 -6 -50 -14 -95 -18 l-81 -6 0 62 0 61
79 0 c59 0 84 -4 95 -16z"/>
<path d="M9245 6018 c-37 -95 -78 -200 -91 -232 -13 -33 -24 -63 -24 -68 0 -5
23 -8 51 -6 51 3 52 3 68 48 l17 45 96 3 96 3 18 -51 18 -50 54 0 c46 0 53 2
48 18 -3 9 -45 116 -94 237 l-88 220 -51 3 -51 3 -67 -173z m145 -30 c13 -35
25 -69 27 -75 4 -10 -11 -13 -56 -13 l-60 0 26 75 c15 41 30 75 34 75 3 0 17
-28 29 -62z"/>
<path d="M10396 6181 c-6 -9 -115 -286 -161 -408 l-24 -63 54 0 53 0 17 50 17
51 96 -3 96 -3 17 -45 17 -45 56 -3 56 -3 -19 48 c-107 271 -165 410 -173 421
-12 14 -94 17 -102 3z m82 -204 l30 -77 -59 0 c-32 0 -59 3 -59 6 0 11 53 155
56 152 1 -2 16 -38 32 -81z"/>
<path d="M10760 5950 l0 -240 153 0 c131 0 156 3 183 19 35 21 64 75 64 118 0
34 -31 88 -60 103 l-21 11 25 25 c13 14 28 38 31 54 7 33 -13 87 -43 113 -24
22 -119 36 -244 37 l-88 0 0 -240z m264 134 c9 -8 16 -24 16 -34 0 -37 -27
-50 -106 -50 l-74 0 0 50 0 50 74 0 c54 0 79 -4 90 -16z m11 -188 c11 -8 18
-26 18 -46 0 -48 -23 -60 -115 -60 l-78 0 0 60 0 60 78 0 c50 0 85 -5 97 -14z"/>
<path d="M11364 6171 c-80 -36 -124 -117 -124 -226 0 -155 84 -245 230 -245
146 0 230 90 230 245 0 155 -84 245 -230 245 -42 0 -79 -7 -106 -19z m182 -87
c12 -8 29 -33 38 -55 57 -142 -46 -290 -161 -232 -51 25 -73 60 -80 126 -9 92
26 162 92 180 29 8 84 -2 111 -19z"/>
<path d="M11798 6185 c-5 -5 -8 -113 -8 -242 l0 -233 50 0 50 0 0 95 0 95 38
0 c45 0 58 -12 127 -117 l48 -73 59 0 c58 0 59 0 47 23 -31 57 -100 153 -120
165 -21 14 -21 14 19 32 71 32 100 112 65 180 -31 59 -62 70 -224 76 -79 4
-147 3 -151 -1z m263 -95 c23 -13 26 -72 4 -90 -9 -7 -47 -13 -93 -14 l-77 -1
-3 58 -3 57 76 0 c42 0 85 -5 96 -10z"/>
<path d="M12433 6178 c-10 -12 -183 -451 -183 -464 0 -3 23 -4 51 -2 51 3 52
4 69 48 l18 45 95 3 96 3 18 -51 18 -50 52 0 c36 0 53 4 52 13 0 6 -42 113
-92 237 l-92 225 -46 3 c-29 2 -50 -2 -56 -10z m101 -255 c7 -22 5 -23 -53
-23 l-60 0 25 68 c14 37 27 74 30 82 5 13 34 -50 58 -127z"/>
<path d="M12798 6185 c-5 -5 -8 -113 -8 -242 l0 -233 50 0 50 0 0 95 0 95 38
0 c45 0 58 -12 127 -117 l48 -73 59 0 c58 0 59 0 47 23 -23 44 -102 152 -121
166 -19 13 -18 14 20 31 53 24 76 60 76 120 0 55 -21 93 -64 115 -33 17 -309
34 -322 20z m263 -95 c23 -13 26 -71 5 -89 -8 -7 -50 -13 -93 -14 l-78 -2 -3
58 -3 57 76 0 c42 0 85 -5 96 -10z"/>
<path d="M13297 6184 c-4 -4 -7 -112 -7 -241 l0 -233 185 0 185 0 0 40 0 40
-135 0 -135 0 0 60 0 60 120 0 120 0 0 45 0 45 -120 0 -120 0 0 50 0 50 131 0
130 0 -3 43 -3 42 -171 3 c-93 1 -173 -1 -177 -4z"/>
<path d="M9830 5945 l0 -235 170 0 170 0 0 40 0 40 -120 0 -120 0 0 195 0 195
-50 0 -50 0 0 -235z"/>
<path d="M7125 5538 c-3 -13 -27 -114 -54 -226 l-48 -203 36 -25 c19 -13 40
-24 45 -24 7 0 319 228 365 266 7 6 -16 28 -46 45 l-28 17 -125 -99 c-68 -54
-126 -96 -128 -94 -3 2 12 72 33 155 40 161 40 161 -14 193 -30 18 -30 18 -36
-5z"/>
<path d="M12745 5358 l-125 -111 26 -28 27 -28 49 42 c43 36 51 40 61 26 7 -9
61 -70 121 -137 l110 -122 33 32 33 32 -24 25 c-13 15 -67 75 -121 136 l-97
110 47 43 48 43 -23 24 c-13 14 -27 25 -31 25 -4 0 -65 -50 -134 -112z"/>
<path d="M7402 5137 c-56 -100 -102 -185 -102 -189 0 -3 16 -16 36 -29 30 -18
38 -19 45 -8 31 49 199 359 199 368 0 10 -50 41 -68 41 -4 0 -54 -82 -110
-183z"/>
<path d="M7641 5232 c-5 -10 -48 -100 -95 -200 l-85 -183 42 -19 42 -18 37 79
c21 43 40 79 42 79 3 0 16 -5 30 -11 29 -14 40 -42 57 -152 l12 -78 48 -25
c48 -24 49 -24 49 -4 0 43 -23 166 -35 190 -13 25 -13 25 35 25 37 0 54 6 74
24 32 30 50 82 41 120 -9 42 -48 73 -172 135 -102 51 -113 54 -122 38z m189
-167 c21 -25 2 -69 -33 -73 -31 -4 -137 41 -137 58 0 6 9 29 20 50 l20 40 58
-29 c32 -16 64 -37 72 -46z"/>
<path d="M12502 5195 c-87 -27 -142 -90 -142 -161 0 -28 8 -44 34 -70 30 -30
40 -34 86 -34 29 0 77 7 107 16 61 18 98 13 105 -14 18 -68 -96 -127 -151 -78
-19 17 -21 17 -54 -6 -41 -27 -37 -44 17 -77 66 -41 167 -19 239 53 47 47 55
90 29 149 -35 79 -89 91 -245 56 -50 -12 -59 -11 -73 3 -21 20 -5 52 36 73 37
19 59 19 80 0 16 -14 21 -14 54 6 43 25 45 41 9 67 -39 27 -81 33 -131 17z"/>
<path d="M8001 5049 c-6 -18 -11 -33 -11 -35 0 -1 25 -12 55 -25 30 -12 55
-28 55 -35 0 -6 -29 -82 -64 -168 -71 -171 -71 -159 -3 -185 24 -9 26 -7 93
159 l67 168 55 -24 c30 -13 57 -24 61 -24 11 0 32 64 23 71 -8 8 -302 129
-313 129 -4 0 -12 -14 -18 -31z"/>
<path d="M12110 4994 c-74 -36 -137 -67 -139 -70 -6 -6 182 -393 192 -394 19
0 298 140 293 148 -3 5 -10 21 -15 35 l-10 26 -107 -49 c-58 -28 -109 -50
-113 -50 -6 0 -51 84 -51 96 0 2 43 25 96 49 80 37 95 48 89 62 -4 10 -10 26
-12 36 -7 22 -21 18 -127 -35 -43 -22 -79 -38 -81 -36 -8 9 -35 68 -35 76 0 5
45 30 100 56 55 26 100 51 100 56 0 19 -24 60 -34 59 -6 0 -72 -30 -146 -65z"/>
<path d="M8365 4938 c-2 -7 -21 -71 -41 -143 -44 -153 -48 -211 -18 -252 45
-63 179 -100 246 -69 45 22 69 66 107 201 17 61 35 125 40 143 9 29 7 34 -12
41 -67 25 -63 27 -87 -51 -11 -40 -32 -110 -46 -155 -28 -94 -50 -117 -102
-107 -43 9 -72 39 -72 75 0 24 57 242 77 296 3 7 -11 16 -34 22 -48 14 -53 14
-58 -1z"/>
<path d="M11592 4823 c-88 -31 -129 -103 -95 -170 31 -63 60 -77 161 -76 126
2 159 -24 108 -84 -20 -23 -32 -28 -71 -28 -40 0 -50 4 -70 28 -22 29 -22 29
-56 12 -19 -10 -36 -19 -38 -21 -10 -9 44 -74 76 -89 67 -32 184 -4 242 58 32
35 38 101 13 146 -30 54 -72 71 -178 71 -71 0 -94 4 -105 16 -19 23 -1 46 49
64 39 13 43 13 72 -8 27 -21 34 -22 70 -11 22 7 40 15 40 19 0 4 -9 19 -21 34
-44 56 -112 69 -197 39z"/>
<path d="M8814 4791 c-37 -23 -59 -77 -49 -121 9 -40 49 -79 124 -118 69 -37
87 -61 71 -92 -32 -60 -160 -15 -160 56 0 22 -23 34 -67 34 -20 0 -23 -5 -23
-39 0 -80 78 -146 186 -157 47 -4 66 -1 93 14 48 26 73 76 68 130 -6 55 -36
87 -127 137 -70 38 -84 53 -74 80 8 20 83 20 112 -1 12 -8 22 -26 22 -39 0
-20 7 -25 43 -33 52 -11 57 -8 57 27 0 37 -37 90 -78 114 -51 30 -158 34 -198
8z"/>
<path d="M11340 4763 c-14 -3 -28 -8 -32 -11 -6 -7 83 -417 93 -427 3 -2 24 1
47 7 32 8 41 15 38 27 -3 9 -24 97 -46 196 -22 99 -43 188 -46 198 -5 17 -9
18 -54 10z"/>
<path d="M11172 4733 c-29 -4 -33 -8 -29 -26 13 -51 39 -239 34 -243 -3 -3
-51 49 -107 116 l-103 121 -41 -7 c-23 -3 -42 -7 -44 -9 -3 -3 65 -425 70
-430 2 -2 21 -2 41 2 44 7 43 3 18 158 -10 61 -17 111 -16 113 2 2 49 -51 106
-117 56 -67 108 -121 115 -121 6 0 26 3 44 6 l32 7 -6 50 c-18 158 -60 387
-70 385 -6 0 -26 -3 -44 -5z"/>
<path d="M9339 4728 c-1 -2 -13 -99 -28 -217 -18 -142 -23 -214 -16 -217 5 -2
26 -5 45 -6 l35 -3 11 88 c7 49 14 90 16 93 3 2 40 -1 84 -7 l80 -12 -12 -91
c-6 -50 -10 -93 -8 -95 2 -2 23 -6 46 -8 l44 -5 24 198 c31 262 33 238 -17
245 -49 6 -48 8 -59 -95 l-7 -68 -66 7 c-106 10 -103 8 -96 73 3 32 8 69 11
83 4 23 1 27 -27 33 -33 6 -58 8 -60 4z"/>
<path d="M10732 4673 c-21 -4 -23 -9 -18 -41 3 -20 13 -109 21 -197 21 -221
17 -208 68 -200 23 4 43 8 44 9 3 2 -37 386 -43 414 -4 22 -18 25 -72 15z"/>
<path d="M9835 4645 c-53 -32 -83 -78 -96 -149 -29 -158 62 -275 214 -276 67
0 121 23 160 70 69 82 62 257 -14 327 -63 58 -193 72 -264 28z m188 -75 c36
-28 51 -80 42 -148 -22 -173 -235 -160 -235 15 0 59 18 110 47 133 35 27 111
27 146 0z"/>
<path d="M10503 4658 c-6 -7 -23 -75 -38 -151 l-29 -138 -44 138 c-24 76 -48
142 -52 147 -5 4 -36 5 -70 1 l-62 -7 6 -132 c4 -72 9 -171 13 -219 l6 -88 41
3 41 3 -3 70 c-1 39 -4 111 -7 160 l-5 90 48 -155 49 -155 45 -3 45 -3 28 143
c34 175 44 197 45 97 0 -42 3 -110 6 -152 l7 -77 44 0 45 0 -6 38 c-3 20 -8
111 -11 202 -4 91 -9 173 -11 183 -4 14 -17 17 -63 17 -35 0 -63 -5 -68 -12z"/>
<path d="M1400 14190 c-79 -9 -171 -41 -223 -77 -21 -14 -76 -66 -122 -115
-180 -189 -235 -409 -161 -643 45 -142 147 -287 277 -393 72 -59 184 -132 204
-132 6 0 21 21 34 47 12 26 47 75 77 109 57 65 59 66 176 80 l57 6 58 -55
c169 -162 202 -384 74 -507 -54 -53 -102 -70 -192 -70 -101 0 -136 14 -206 82
-38 38 -67 59 -76 55 -22 -8 -42 -127 -41 -242 1 -114 17 -189 92 -425 119
-370 110 -578 -28 -647 -72 -37 -244 -25 -315 21 -24 16 -25 16 -25 -6 0 -33
79 -162 139 -230 56 -62 136 -108 188 -108 75 0 160 72 227 193 28 50 82 111
210 239 195 196 275 290 576 678 280 362 378 478 535 638 140 145 248 239 363
321 64 45 75 50 94 40 20 -11 26 -7 67 42 100 120 216 219 345 294 14 8 -7 22
-116 77 -79 40 -161 90 -202 124 l-68 56 -95 -93 c-125 -124 -316 -335 -543
-599 -448 -523 -659 -731 -920 -904 -79 -53 -85 -56 -98 -39 -34 46 -34 50 11
76 74 44 225 162 346 271 135 121 295 293 576 621 285 331 330 381 517 571
l169 171 -22 59 c-12 32 -35 78 -51 102 l-29 42 -78 0 c-71 0 -84 -3 -162 -43
-174 -89 -268 -164 -509 -407 -187 -189 -253 -238 -380 -281 -79 -26 -215 -36
-291 -20 -247 51 -399 275 -349 514 26 129 145 305 273 407 55 43 56 45 34 56
-40 21 -222 54 -287 53 -36 -1 -94 -5 -130 -9z m1817 -425 l28 -25 -85 -81
c-47 -44 -166 -144 -264 -222 -99 -78 -220 -177 -270 -219 l-91 -76 -28 26
-29 27 51 47 c28 25 124 104 213 174 199 156 317 256 383 323 28 28 53 51 57
51 4 0 20 -11 35 -25z m317 -280 c9 -13 16 -28 16 -33 0 -5 -39 -33 -87 -62
-184 -112 -322 -229 -391 -332 -28 -43 -37 -45 -72 -19 l-24 19 37 55 c47 67
161 179 247 239 81 57 240 158 250 158 4 0 15 -11 24 -25z"/>
<path d="M18580 14167 c-52 -13 -101 -26 -107 -30 -9 -5 21 -41 90 -110 104
-103 156 -175 198 -277 19 -46 23 -74 23 -170 1 -110 0 -118 -31 -181 -106
-216 -377 -306 -634 -210 -111 42 -176 92 -377 292 -219 216 -329 305 -475
379 -93 48 -102 50 -175 49 -73 0 -78 -1 -101 -30 -13 -17 -37 -62 -52 -100
l-28 -69 137 -138 c152 -151 271 -284 592 -657 355 -413 601 -653 821 -802
l98 -66 -14 -28 c-8 -15 -19 -30 -23 -33 -11 -6 -158 93 -257 172 -201 162
-383 351 -736 762 -257 300 -393 451 -538 594 l-120 119 -38 -34 c-62 -56
-123 -95 -244 -154 -62 -30 -114 -57 -116 -59 -2 -2 22 -18 54 -36 109 -62
209 -150 314 -279 32 -39 38 -42 58 -32 19 11 30 7 87 -34 268 -192 476 -409
836 -874 367 -475 550 -689 727 -850 70 -64 100 -101 128 -153 64 -122 152
-198 229 -198 48 0 129 47 184 106 57 63 150 209 150 236 0 22 -13 23 -30 4
-18 -23 -152 -49 -229 -44 -219 12 -256 231 -116 673 29 94 61 199 71 235 34
124 18 411 -23 427 -9 4 -37 -16 -76 -55 -73 -72 -118 -87 -230 -80 -136 9
-209 72 -238 207 -24 111 38 269 143 366 l62 57 60 -6 c114 -12 117 -14 178
-86 32 -37 67 -88 77 -114 l20 -46 53 31 c293 173 468 435 468 698 -1 194 -97
382 -267 524 -102 86 -188 115 -362 121 -107 4 -140 2 -221 -17z m-1390 -460
c42 -41 186 -162 321 -270 134 -108 257 -208 273 -222 l28 -26 -23 -27 c-13
-15 -25 -29 -26 -31 -1 -2 -33 23 -70 56 -37 33 -151 125 -253 205 -186 146
-297 240 -358 304 l-33 34 28 25 c15 13 30 25 32 25 2 0 38 -33 81 -73z m-319
-258 c189 -114 318 -224 405 -342 l45 -60 -28 -19 c-38 -24 -46 -23 -67 13
-53 90 -208 224 -387 334 -52 32 -95 59 -97 60 -6 5 28 65 37 65 4 0 46 -23
92 -51z"/>
<path d="M3845 13248 c-129 -84 -266 -212 -307 -285 -31 -56 -37 -59 -68 -43
-16 9 -21 5 -31 -27 -16 -55 -22 -278 -11 -423 5 -69 7 -162 5 -207 l-6 -83
-38 0 -39 0 0 134 c0 73 -5 190 -10 260 -11 128 -2 261 21 334 6 18 9 37 7 42
-4 11 -166 -111 -186 -139 -11 -17 -11 -36 2 -118 35 -233 46 -461 31 -709
-12 -222 11 -396 115 -868 72 -321 90 -380 173 -551 94 -193 267 -456 352
-535 l27 -25 -6 25 c-4 14 -10 111 -15 216 -4 105 -11 196 -15 202 -4 6 -25
17 -48 24 -33 10 -51 26 -94 83 -237 314 -299 609 -158 749 109 109 299 53
384 -114 72 -142 79 -394 16 -626 l-14 -52 43 -30 c62 -44 92 -103 130 -258
18 -74 36 -138 38 -141 8 -7 35 122 48 227 14 119 6 281 -25 462 -27 158 -20
143 -226 473 -219 351 -267 442 -330 625 -59 173 -71 254 -70 473 1 193 1 201
35 325 27 100 53 163 122 300 82 160 94 178 176 262 48 50 86 90 84 90 -2 0
-53 -32 -112 -72z"/>
<path d="M16418 13224 c87 -86 93 -96 176 -261 64 -128 95 -204 120 -295 31
-114 34 -137 39 -309 5 -155 2 -202 -13 -280 -46 -239 -149 -467 -356 -794
-225 -354 -230 -365 -253 -495 -47 -262 -48 -446 -5 -644 21 -93 25 -88 59 64
36 157 67 215 147 275 l26 20 -24 105 c-79 340 -11 627 171 716 46 22 65 26
115 22 158 -11 233 -167 186 -382 -23 -100 -118 -287 -203 -400 -57 -74 -75
-92 -113 -105 -43 -16 -45 -18 -51 -66 -4 -28 -9 -126 -12 -218 l-5 -168 20
18 c60 53 234 308 316 463 92 171 129 284 198 589 94 418 115 553 121 766 3
104 1 208 -5 247 -12 75 -2 270 25 493 27 230 33 207 -76 293 -51 40 -95 71
-97 69 -3 -2 4 -33 13 -68 15 -53 17 -94 14 -239 -3 -96 -5 -242 -5 -323 l0
-148 -41 3 -40 3 1 155 c0 85 2 227 4 315 3 173 -13 274 -41 266 -8 -2 -21 -5
-29 -8 -10 -2 -24 12 -40 43 -46 89 -229 250 -383 339 -46 26 -44 24 41 -61z"/>
<path d="M2952 12594 c-46 -49 -88 -100 -93 -114 -6 -13 -14 -78 -18 -144 -9
-118 4 -275 29 -365 5 -20 10 -78 10 -128 l0 -93 -49 0 c-55 0 -61 8 -61 86 0
43 -49 406 -55 412 -10 11 -68 -45 -109 -105 -129 -192 -184 -555 -135 -901
10 -72 10 -74 -17 -110 -15 -20 -28 -38 -29 -40 -2 -2 -20 5 -40 15 l-38 18 7
270 c3 149 9 314 13 368 3 58 2 97 -3 97 -6 0 -24 -18 -41 -41 -25 -32 -33
-55 -39 -106 -11 -105 2 -404 25 -573 59 -432 62 -444 213 -915 77 -242 163
-496 190 -565 28 -69 54 -135 59 -148 9 -23 9 -23 39 11 39 45 79 61 139 55
l48 -5 -52 81 c-69 105 -156 282 -212 426 -160 412 -204 856 -121 1213 19 85
22 89 70 127 114 91 222 73 296 -50 60 -101 71 -162 92 -525 12 -205 50 -475
118 -847 l48 -257 41 -36 c25 -21 55 -62 73 -99 73 -148 358 -366 570 -434 65
-21 199 -46 207 -39 2 2 -38 29 -89 60 -221 132 -425 308 -517 445 -102 151
-133 257 -129 433 l3 123 95 -159 c106 -176 154 -236 211 -265 66 -34 71 -28
40 43 -16 34 -34 79 -40 99 -7 20 -44 85 -82 145 -81 124 -215 389 -276 543
-127 324 -211 656 -249 980 -20 173 -15 510 10 627 14 66 13 75 -4 120 -25 67
-49 183 -58 277 l-7 80 -83 -90z"/>
<path d="M17257 12654 c-4 -4 -7 -26 -7 -50 0 -56 -25 -183 -51 -263 -21 -63
-21 -65 -4 -185 32 -228 19 -559 -35 -841 -86 -449 -277 -951 -476 -1250 -29
-44 -67 -111 -84 -150 -17 -38 -42 -94 -56 -122 -27 -61 -20 -67 45 -33 58 29
114 99 215 269 l91 153 7 -83 c19 -214 -55 -404 -229 -590 -117 -123 -286
-253 -456 -349 -32 -18 -56 -34 -54 -37 8 -7 141 17 207 39 205 65 503 290
567 427 15 31 48 76 74 101 l46 45 52 280 c83 456 121 748 121 939 0 326 108
535 264 512 49 -8 129 -56 157 -96 58 -80 87 -489 54 -736 -47 -349 -191 -742
-369 -1008 l-43 -64 38 5 c62 9 106 -5 145 -43 19 -20 37 -34 39 -33 19 20
140 363 253 717 149 465 159 507 213 902 22 164 36 520 25 612 -6 40 -16 62
-42 93 l-35 40 7 -372 7 -371 -34 -17 -33 -18 -33 39 c-21 25 -32 46 -29 59
16 65 28 277 23 385 -11 215 -42 361 -108 498 -42 87 -131 194 -148 176 -11
-11 -51 -288 -58 -406 l-6 -88 -53 0 -54 0 0 88 c1 48 7 113 15 145 46 193 41
453 -10 527 -35 50 -150 162 -158 154z"/>
<path d="M2154 11602 c-6 -4 -47 -48 -91 -99 -89 -101 -98 -121 -133 -293 -11
-58 -27 -136 -35 -175 -35 -169 -38 -204 -25 -283 35 -221 137 -548 338 -1092
198 -538 275 -793 322 -1064 53 -310 45 -622 -21 -826 -68 -209 -182 -361
-323 -430 -360 -176 -855 212 -936 735 -7 44 -16 84 -20 88 -11 12 -114 -147
-150 -231 -43 -102 -62 -193 -63 -302 0 -111 19 -194 68 -298 l35 -73 77 -36
c121 -56 182 -75 260 -82 l72 -6 -67 -89 -67 -90 -4 -84 c-6 -141 35 -211 128
-220 63 -6 111 16 204 93 l67 57 0 -84 c0 -70 4 -93 26 -136 48 -96 134 -127
218 -78 82 48 108 90 135 217 13 63 26 118 28 122 3 4 22 -18 43 -50 67 -102
163 -193 252 -239 83 -42 83 -42 94 134 3 62 11 115 16 118 5 3 17 -1 26 -9
82 -71 186 -57 233 33 25 47 24 82 -5 125 -23 34 -226 428 -226 439 0 3 75
-43 166 -101 92 -58 181 -109 198 -114 43 -12 153 -11 200 2 151 42 150 223
-5 564 l-52 115 56 118 c86 180 102 243 102 392 0 218 -36 286 -280 525 -172
168 -202 211 -239 334 -17 59 -21 185 -7 223 8 20 -3 37 -79 126 -182 213
-248 400 -415 1182 -30 140 -53 336 -73 614 -10 129 -21 231 -27 233 -5 1 -15
-1 -21 -5z m-61 -939 c18 -404 107 -707 364 -1233 147 -300 289 -645 319 -775
33 -139 81 -466 90 -607 l7 -118 -41 0 -40 0 -7 113 c-8 139 -46 403 -81 560
-32 146 -168 483 -311 773 -265 534 -363 865 -380 1277 l-6 157 40 0 40 0 6
-147z m598 -2745 c15 -55 6 -222 -16 -303 -23 -84 -96 -235 -152 -314 -100
-140 -245 -254 -383 -302 -49 -17 -89 -22 -160 -23 -102 -1 -164 14 -252 62
l-48 25 20 31 c10 17 23 31 27 30 4 0 34 -12 65 -27 131 -61 252 -57 393 12
227 112 415 400 432 661 3 47 1 104 -5 127 -9 40 -8 43 17 52 44 16 50 13 62
-31z"/>
<path d="M18106 11553 c-3 -27 -10 -118 -16 -203 -20 -280 -64 -617 -92 -689
-5 -14 -25 -101 -44 -194 -66 -315 -146 -574 -221 -720 -20 -37 -75 -113 -124
-170 -87 -100 -89 -103 -82 -142 19 -110 -6 -242 -64 -345 -14 -25 -103 -121
-197 -215 -155 -153 -176 -178 -213 -252 -53 -106 -67 -173 -60 -293 6 -113
37 -218 108 -369 27 -57 49 -109 49 -116 0 -7 -22 -59 -49 -116 -74 -159 -102
-250 -108 -355 -5 -73 -2 -98 12 -127 25 -52 73 -79 155 -85 120 -8 143 0 316
110 88 55 165 103 172 105 15 6 -188 -407 -219 -446 -24 -31 -24 -62 1 -112
43 -83 132 -101 218 -44 23 15 44 26 46 24 2 -2 8 -62 14 -133 6 -71 16 -134
22 -140 17 -17 124 44 202 115 37 33 88 92 114 131 l48 72 27 -121 c29 -132
49 -170 119 -218 77 -53 162 -42 213 27 36 49 40 64 46 168 l6 94 57 -52 c188
-170 342 -123 342 103 0 91 -3 99 -86 208 l-59 77 60 0 c96 0 329 91 365 142
32 45 75 175 87 261 19 139 -11 298 -86 447 -32 65 -115 184 -122 176 -3 -2
-11 -42 -19 -88 -54 -315 -247 -592 -499 -718 -96 -47 -155 -61 -256 -61 -230
0 -400 160 -504 474 -92 279 -71 711 56 1171 46 168 115 369 254 746 178 481
237 664 302 935 39 162 36 251 -16 502 -23 111 -48 221 -56 244 -19 52 -178
239 -205 239 -4 0 -11 -21 -14 -47z m171 -920 c-14 -406 -105 -708 -394 -1303
-147 -302 -265 -597 -296 -740 -28 -127 -73 -445 -83 -582 l-6 -88 -39 0 c-36
0 -39 2 -39 28 1 129 52 506 94 690 31 133 158 443 323 787 179 373 256 573
309 807 31 138 54 335 54 465 l0 103 41 0 42 0 -6 -167z m-619 -2694 c28 -10
31 -14 24 -37 -4 -15 -6 -70 -6 -122 2 -160 69 -327 194 -485 182 -228 433
-309 638 -204 l57 29 22 -28 c13 -15 23 -30 23 -34 0 -10 -73 -47 -138 -69
-329 -113 -728 176 -854 617 -32 112 -31 344 1 344 4 0 22 -5 39 -11z"/>
<path d="M2774 11384 c-58 -29 -73 -54 -96 -165 -32 -154 -32 -461 1 -644 69
-389 253 -812 444 -1021 64 -71 123 -114 154 -114 21 0 23 4 23 43 -1 73 -44
141 -122 192 -11 7 -32 100 -71 320 -92 506 -111 651 -127 965 -5 110 -16 220
-25 253 -38 144 -106 209 -181 171z"/>
<path d="M17444 11380 c-12 -5 -34 -24 -48 -43 -46 -60 -67 -140 -77 -287 -25
-367 -31 -441 -54 -598 -47 -325 -134 -776 -152 -787 -69 -43 -123 -127 -123
-192 0 -67 46 -56 141 34 231 218 447 730 500 1183 16 147 7 407 -20 535 -23
106 -33 121 -98 151 -37 16 -40 16 -69 4z"/>
<path d="M3605 11247 c-101 -101 -60 -313 110 -568 64 -95 105 -139 131 -139
7 0 21 36 35 93 30 121 34 361 7 447 -37 120 -120 200 -207 200 -35 0 -49 -6
-76 -33z"/>
<path d="M16534 11251 c-53 -32 -100 -98 -125 -174 -34 -102 -34 -287 0 -439
15 -70 28 -108 37 -108 24 0 71 49 126 132 110 164 168 311 168 424 0 78 -16
121 -59 157 -39 33 -101 36 -147 8z"/>
<path d="M3945 10230 c3 -99 13 -205 22 -245 14 -61 22 -76 69 -125 29 -30 55
-52 59 -48 3 3 10 34 15 69 9 60 8 67 -20 124 -17 33 -39 101 -51 150 -37 158
-49 194 -75 222 l-25 28 6 -175z"/>
<path d="M16334 10379 c-27 -33 -46 -86 -70 -192 -14 -61 -39 -142 -56 -179
-27 -60 -30 -75 -25 -133 2 -37 7 -69 10 -72 3 -3 26 11 51 32 56 46 82 109
97 238 13 119 9 326 -7 306z"/>
<path d="M4638 9719 c-59 -9 -103 -35 -156 -93 -66 -72 -92 -133 -92 -218 0
-87 23 -189 51 -235 36 -58 66 -67 233 -73 l148 -5 -51 -77 c-61 -90 -120
-144 -212 -193 -363 -191 -956 55 -1162 482 -38 80 -40 82 -60 68 -12 -8 -36
-15 -54 -15 -18 0 -33 -3 -33 -6 0 -19 114 -414 145 -503 40 -114 105 -250
168 -349 73 -117 283 -247 472 -294 130 -32 313 -30 445 5 178 47 404 160 441
221 27 44 57 143 65 218 l7 63 -47 -62 c-58 -76 -136 -140 -236 -192 -109 -57
-204 -82 -340 -88 -182 -8 -307 27 -462 128 l-82 54 260 6 c268 6 358 18 461
57 173 66 313 211 394 409 86 209 91 359 17 506 -66 133 -191 205 -320 186z"/>
<path d="M15563 9710 c-63 -13 -114 -43 -166 -99 -130 -138 -148 -331 -56
-567 96 -245 259 -403 474 -458 100 -25 229 -36 450 -36 l210 0 -70 -46 c-172
-112 -259 -139 -450 -139 -166 1 -225 14 -365 82 -76 38 -110 62 -175 127 -45
45 -89 92 -99 106 -17 25 -17 25 -11 -25 9 -81 26 -147 52 -202 26 -57 61 -83
218 -160 162 -81 309 -117 475 -117 147 1 260 27 395 94 147 72 225 135 286
228 62 94 127 227 168 344 30 86 141 478 141 498 0 5 -15 10 -33 10 -18 0 -42
7 -54 15 -21 14 -22 13 -39 -33 -30 -78 -129 -215 -210 -291 -352 -328 -844
-389 -1097 -134 -31 32 -75 85 -97 118 l-40 60 148 5 c164 6 198 16 233 73 27
44 38 87 49 196 10 92 10 94 -20 156 -68 142 -193 219 -317 195z"/>
<path d="M2918 9477 c-27 -11 -28 -13 -27 -86 1 -134 9 -160 76 -242 33 -41
87 -114 121 -164 51 -76 162 -202 162 -183 0 3 -5 30 -10 59 -6 30 -20 136
-30 236 -13 125 -25 197 -39 227 -23 54 -87 117 -145 145 -46 23 -67 24 -108
8z"/>
<path d="M17272 9465 c-55 -24 -139 -111 -157 -163 -9 -26 -23 -115 -31 -197
-8 -83 -20 -188 -28 -233 -7 -45 -9 -82 -5 -82 13 0 115 123 169 205 29 44 78
112 110 150 55 67 57 73 68 155 19 138 18 147 -24 165 -44 18 -60 18 -102 0z"/>
<path d="M3387 8527 c24 -100 26 -200 7 -299 -5 -23 2 -35 36 -70 51 -50 175
-296 245 -486 141 -383 207 -745 208 -1142 1 -231 -11 -361 -49 -564 -22 -111
-24 -137 -15 -196 26 -165 105 -253 226 -253 92 0 174 55 223 147 24 46 27 61
26 151 0 111 -16 163 -87 280 -20 32 -34 61 -32 63 2 2 46 -11 98 -29 l94 -33
41 32 c36 29 42 39 57 110 9 42 25 101 36 131 l20 54 -52 81 c-29 45 -61 95
-71 113 -11 18 -40 46 -65 62 -45 30 -65 36 -238 66 -50 9 -96 20 -102 23 -9
6 -7 30 7 92 32 143 43 299 30 435 -18 203 -52 330 -187 712 l-75 213 -77 41
c-42 22 -83 46 -92 52 -9 7 -62 78 -118 159 -56 81 -106 150 -110 153 -5 2 2
-41 16 -98z"/>
<path d="M16854 8523 c-37 -54 -85 -123 -106 -153 -29 -42 -59 -67 -124 -107
-46 -28 -88 -53 -93 -55 -11 -4 -163 -436 -205 -583 -54 -191 -69 -312 -63
-505 4 -113 12 -195 26 -259 16 -74 18 -96 9 -102 -7 -5 -55 -15 -108 -24 -52
-9 -124 -25 -160 -35 -79 -23 -114 -56 -197 -189 l-60 -95 23 -70 c12 -39 27
-98 34 -131 10 -52 18 -65 53 -95 l40 -34 104 37 104 36 -26 -42 c-106 -173
-135 -294 -100 -414 21 -69 66 -127 127 -163 48 -28 60 -31 125 -28 63 3 76 7
110 34 50 41 92 124 105 211 10 61 8 85 -10 179 -36 181 -52 356 -52 570 0
298 27 519 96 797 84 334 250 729 352 839 l44 47 -11 109 c-11 102 -10 116 13
213 14 57 23 105 21 107 -2 2 -34 -41 -71 -95z"/>
<path d="M3911 8053 c56 -154 136 -402 144 -444 8 -43 25 -49 135 -49 l68 0
59 64 c77 82 107 143 108 218 0 47 -5 64 -30 100 -59 83 -195 148 -311 148
-42 0 -70 8 -124 35 -38 19 -74 35 -79 35 -5 0 9 -48 30 -107z"/>
<path d="M16345 8117 c-48 -25 -77 -32 -145 -38 -257 -20 -395 -182 -305 -359
15 -29 52 -79 84 -111 55 -57 59 -59 108 -59 27 0 71 3 96 6 45 6 46 7 58 58
16 68 75 251 132 409 25 70 43 127 39 127 -4 -1 -34 -15 -67 -33z"/>
<path d="M3292 7991 c-34 -65 -62 -124 -62 -130 0 -7 22 -63 49 -124 75 -170
115 -313 109 -396 -3 -36 -14 -88 -26 -114 l-21 -47 53 -31 c36 -20 56 -38 60
-55 18 -71 87 -509 101 -636 48 -465 -11 -832 -200 -1226 l-64 -132 37 -19
c104 -53 247 -68 344 -35 38 12 68 33 108 73 67 67 97 137 113 262 l11 85 -46
42 c-59 55 -103 151 -118 258 -10 73 -8 94 14 205 39 194 50 316 49 559 -1
450 -86 855 -269 1278 -73 170 -149 302 -174 302 -3 0 -34 -53 -68 -119z"/>
<path d="M16897 8068 c-57 -76 -172 -329 -238 -527 -118 -349 -170 -663 -170
-1026 -1 -213 10 -346 42 -515 31 -160 32 -183 20 -255 -19 -108 -47 -170
-107 -235 l-55 -59 11 -82 c26 -185 108 -303 240 -339 86 -24 229 -7 317 38
l42 22 -55 115 c-102 214 -163 404 -201 620 -24 140 -24 509 1 690 16 116 75
476 92 563 5 27 16 38 55 57 54 28 65 41 51 58 -17 20 -42 118 -42 162 0 73
52 240 122 393 21 46 38 91 38 99 0 20 -120 253 -130 253 -5 0 -20 -15 -33
-32z"/>
<path d="M4094 7440 c27 -187 25 -400 -5 -540 -6 -28 -9 -57 -6 -64 3 -7 41
-18 88 -25 46 -7 108 -21 137 -31 l52 -18 39 66 c62 107 143 274 146 302 2 14
9 55 16 91 12 61 11 69 -7 100 -27 47 -131 114 -212 138 -39 11 -107 21 -161
23 l-93 3 6 -45z"/>
<path d="M16080 7470 c-47 -4 -110 -14 -141 -24 -79 -23 -180 -93 -202 -138
-19 -39 -19 -37 12 -188 7 -32 147 -317 175 -355 11 -16 15 -16 42 -2 17 9 71
23 120 32 149 26 134 15 117 87 -21 96 -28 394 -11 501 8 48 12 89 10 92 -3 3
-12 4 -21 3 -9 0 -54 -4 -101 -8z"/>
<path d="M4805 7447 c-69 -33 -132 -106 -141 -163 -9 -61 4 -186 27 -261 22
-70 65 -115 126 -133 32 -9 180 -29 220 -30 9 0 13 -34 15 -121 l3 -121 31 29
c18 15 43 38 57 49 42 35 62 120 62 259 -1 112 -3 124 -30 179 -63 125 -160
199 -231 176 -65 -22 -114 -116 -114 -222 l0 -48 -40 0 -40 0 0 54 c0 79 34
180 77 227 48 53 87 72 148 72 102 0 197 -78 267 -221 l43 -85 0 -142 0 -142
22 30 c99 133 57 344 -98 500 -90 90 -174 130 -279 135 -63 2 -83 -1 -125 -21z"/>
<path d="M15246 7435 c-120 -49 -240 -171 -287 -292 -43 -112 -24 -279 40
-337 17 -15 17 -12 9 51 -14 101 4 232 42 310 38 76 119 167 174 195 55 28
129 28 184 -1 76 -39 132 -155 132 -273 l0 -58 -37 0 -38 0 -3 60 c-2 34 -10
80 -18 103 -18 51 -67 104 -104 112 -70 15 -167 -65 -223 -184 -28 -59 -30
-73 -31 -175 -1 -134 20 -214 65 -257 17 -15 43 -40 60 -55 l29 -27 0 121 c0
67 3 122 8 122 70 3 209 23 241 36 54 21 96 71 116 136 22 72 31 234 16 281
-16 47 -106 129 -158 145 -65 20 -151 15 -217 -13z"/>
<path d="M4543 6928 c-29 -57 -67 -128 -84 -158 l-32 -55 74 -112 74 -113 75
0 c41 0 100 -7 130 -15 30 -8 58 -15 62 -15 3 0 33 23 67 52 l61 51 0 112 0
112 -62 7 c-109 11 -167 35 -224 91 -35 35 -55 65 -64 98 -8 26 -17 47 -20 47
-3 0 -29 -46 -57 -102z"/>
<path d="M15672 6972 c-41 -111 -118 -165 -268 -185 l-84 -11 0 -109 0 -109
47 -42 c79 -70 75 -69 142 -51 32 8 93 15 134 15 l74 0 75 115 c73 110 75 115
59 137 -9 13 -48 85 -87 161 l-71 138 -21 -59z"/>
<path d="M4590 6384 c-19 -50 -39 -120 -56 -194 -16 -74 -17 -76 -80 -128 -54
-45 -69 -53 -91 -47 -21 5 -24 3 -19 -10 65 -171 40 -345 -66 -461 -48 -53
-145 -104 -195 -104 -33 0 -45 -13 -20 -23 7 -3 30 -33 52 -68 87 -143 228
-301 370 -416 116 -93 276 -195 347 -219 180 -62 421 -82 586 -48 278 57 488
223 621 491 39 78 83 205 96 276 9 49 3 49 -165 -8 -233 -78 -329 -99 -460
-99 -89 0 -129 5 -178 21 -94 31 -191 94 -286 184 -71 67 -101 106 -177 230
l-92 151 5 196 c4 135 10 210 20 238 l15 41 -57 11 c-31 7 -80 12 -108 12 -47
0 -53 -3 -62 -26z m39 -541 c122 -241 307 -433 515 -533 204 -98 369 -112 637
-54 23 5 28 1 38 -27 6 -18 8 -36 4 -40 -21 -21 -185 -44 -308 -43 -264 1
-478 90 -679 283 -113 109 -243 289 -292 406 -14 33 -13 35 13 49 16 8 31 15
35 16 4 0 21 -26 37 -57z m-185 -403 c20 -55 78 -150 134 -219 51 -61 163
-146 254 -192 243 -122 579 -138 839 -39 30 11 57 20 60 20 11 0 31 -58 25
-69 -4 -6 -42 -22 -85 -35 -254 -80 -536 -79 -763 4 -238 87 -406 233 -512
446 -51 103 -52 110 -19 122 45 17 48 15 67 -38z"/>
<path d="M15522 6387 c-33 -8 -42 -14 -36 -26 13 -32 33 -239 34 -344 l0 -109
-87 -141 c-205 -336 -443 -484 -726 -449 -108 14 -203 37 -388 98 -75 24 -143
44 -153 44 -22 0 -18 -24 30 -170 109 -330 324 -541 639 -626 95 -25 314 -30
432 -9 157 28 245 62 363 142 264 177 422 335 555 552 20 34 41 61 46 61 5 0
9 4 9 9 0 5 -21 11 -47 15 -102 13 -214 108 -253 215 -38 101 -37 188 6 339 6
20 4 22 -17 17 -19 -5 -38 6 -90 49 -66 54 -67 55 -83 133 -9 43 -27 107 -39
143 l-22 65 -65 2 c-36 0 -84 -4 -108 -10z m207 -508 c17 -6 31 -16 31 -22 0
-22 -91 -181 -148 -261 -74 -102 -205 -233 -292 -291 -97 -65 -223 -121 -326
-147 -143 -35 -364 -29 -500 13 -31 10 -32 11 -21 45 9 31 14 35 36 30 244
-53 414 -43 602 35 205 84 406 280 534 522 26 48 48 87 49 87 2 0 17 -5 35
-11z m180 -410 c17 -6 31 -16 31 -22 0 -7 -20 -53 -45 -103 -126 -254 -371
-431 -679 -489 -104 -20 -315 -20 -426 -1 -84 15 -238 60 -252 75 -9 7 12 71
23 71 4 0 22 -6 41 -14 64 -27 198 -56 301 -66 324 -31 646 91 827 313 28 34
72 104 97 155 25 50 46 92 47 92 2 0 17 -5 35 -11z"/>
<path d="M9635 3460 c4 -316 11 -599 16 -629 11 -65 45 -127 94 -170 143 -125
406 -133 582 -16 59 39 93 80 125 151 23 49 23 49 26 630 l3 581 -38 6 c-21 4
-75 7 -120 7 l-82 0 -3 -522 c-3 -410 -7 -531 -17 -558 -33 -86 -102 -138
-163 -125 -44 10 -92 58 -119 117 l-24 53 -3 522 -3 522 -140 3 -140 3 6 -575z"/>
<path d="M9992 3502 l3 -498 26 -49 c21 -42 30 -50 57 -53 30 -3 34 0 54 45
21 47 22 63 26 551 l5 502 -87 0 -87 0 3 -498z"/>
<path d="M1064 3883 c19 -43 43 -98 54 -123 11 -25 131 -211 266 -415 134
-203 244 -371 242 -372 -1 -2 -54 2 -117 8 -140 14 -427 5 -564 -16 -188 -29
-643 -142 -628 -155 4 -5 154 -42 333 -84 669 -158 955 -249 1246 -397 198
-100 372 -218 494 -335 l45 -44 -12 133 c-24 263 -12 501 33 657 8 30 31 94
50 142 l35 87 -25 38 c-101 153 -59 284 103 326 33 8 49 17 42 21 -7 4 -135
12 -284 17 -354 11 -475 32 -670 115 -160 69 -325 179 -527 354 -52 45 -107
91 -122 101 l-28 20 34 -78z"/>
<path d="M19283 3797 c-34 -28 -106 -90 -160 -135 -240 -204 -492 -333 -738
-377 -54 -10 -197 -20 -360 -25 -148 -6 -283 -13 -300 -18 l-30 -9 40 -7 c178
-33 232 -161 134 -320 l-30 -49 35 -86 c90 -223 114 -454 83 -796 l-12 -131
85 74 c164 142 413 291 643 387 261 107 491 173 1175 336 122 29 219 56 215
60 -10 10 -329 92 -458 119 -251 52 -469 68 -693 50 -85 -6 -155 -10 -157 -8
-1 2 108 170 243 373 171 259 258 400 290 470 46 105 63 145 59 145 -1 0 -30
-24 -64 -53z"/>
<path d="M3705 3499 c-83 -12 -230 -55 -293 -85 -40 -20 -52 -31 -48 -43 2 -9
30 -88 60 -176 30 -88 89 -275 130 -415 68 -234 156 -503 176 -540 7 -11 14
-3 29 33 56 129 149 229 416 442 199 159 280 238 358 344 l47 63 -33 41 c-204
260 -513 383 -842 336z"/>
<path d="M16420 3389 c-225 -26 -432 -145 -581 -332 l-39 -49 33 -46 c64 -91
205 -227 392 -376 218 -174 317 -277 373 -382 l38 -74 47 132 c26 73 72 219
102 323 92 313 153 505 189 600 22 60 30 94 24 102 -12 16 -174 69 -263 87
-97 19 -226 25 -315 15z"/>
<path d="M3275 3276 c-13 -30 -31 -80 -40 -112 -18 -65 -31 -263 -21 -316 6
-33 9 -35 75 -52 65 -17 73 -17 125 -2 30 9 57 20 60 25 10 16 -150 511 -166
511 -5 0 -20 -24 -33 -54z"/>
<path d="M2735 3275 c-16 -8 -56 -21 -88 -30 -65 -18 -97 -44 -97 -79 0 -13
15 -53 33 -87 26 -51 45 -72 94 -106 l61 -43 21 89 c21 87 30 272 14 270 -5 0
-21 -7 -38 -14z"/>
<path d="M17032 3078 c-54 -159 -112 -349 -112 -369 0 -10 15 -20 39 -27 52
-16 85 -15 148 5 48 15 53 20 59 51 11 55 -3 252 -21 312 -22 71 -56 150 -64
150 -4 0 -26 -55 -49 -122z"/>
<path d="M17600 3091 c0 -83 17 -193 37 -249 l9 -23 54 38 c64 45 115 116 125
174 10 56 -16 82 -103 105 -37 9 -79 23 -94 31 l-28 14 0 -90z"/>
<path d="M4599 2992 c-61 -86 -175 -194 -359 -341 -272 -217 -334 -283 -402
-427 -20 -43 -32 -87 -36 -130 l-5 -64 39 14 c22 7 154 93 294 190 176 122
303 202 412 259 114 59 156 86 153 97 -2 8 -13 87 -24 175 -17 136 -38 266
-44 265 -1 0 -14 -17 -28 -38z"/>
<path d="M15742 2869 c-6 -25 -18 -101 -27 -169 -8 -69 -17 -135 -19 -147 -3
-19 8 -28 78 -60 200 -92 551 -282 719 -390 78 -50 80 -46 24 61 -47 88 -152
193 -362 361 -177 142 -298 256 -371 349 l-31 39 -11 -44z"/>
<path d="M2594 2863 c-69 -166 -89 -279 -89 -513 0 -205 12 -356 46 -581 l21
-136 64 -57 c50 -45 83 -64 147 -88 233 -85 460 -121 639 -100 77 9 248 45
265 56 1 1 -10 48 -23 106 -30 131 -41 270 -25 328 7 23 25 57 41 76 27 31 30
40 30 106 0 64 -7 90 -54 214 -30 77 -76 211 -102 297 l-47 157 -41 -15 c-62
-23 -159 -21 -241 6 -58 18 -89 22 -185 20 -103 -2 -123 1 -187 25 -40 15
-108 51 -152 81 -43 30 -82 55 -85 55 -3 0 -13 -17 -22 -37z"/>
<path d="M17680 2733 c-47 -31 -119 -70 -160 -85 -69 -26 -82 -28 -170 -23
-82 6 -108 3 -193 -19 -111 -30 -154 -32 -221 -12 -35 11 -48 11 -51 3 -43
-147 -135 -419 -166 -494 -27 -65 -43 -119 -46 -160 -5 -57 -3 -65 25 -100 16
-21 35 -56 42 -77 17 -53 7 -192 -24 -326 -13 -58 -23 -106 -21 -108 1 -1 47
-14 101 -29 88 -23 118 -27 269 -27 197 -1 263 10 476 81 129 43 138 48 201
106 l66 62 16 90 c51 297 67 746 33 903 -20 89 -56 202 -79 245 l-13 27 -85
-57z"/>
<path d="M6890 2547 c0 -10 -110 -381 -114 -385 -6 -5 -16 18 -92 220 l-59
158 -58 0 c-51 0 -58 -2 -53 -17 3 -10 50 -128 104 -263 l98 -245 59 0 59 0
83 260 c46 143 83 263 83 268 0 4 -25 7 -55 7 -30 0 -55 -1 -55 -3z"/>
<path d="M6328 2533 c-22 -6 -22 -6 2 -278 11 -121 20 -228 20 -239 0 -16 6
-18 50 -14 28 3 52 7 54 9 5 4 -31 441 -40 497 -4 29 -8 32 -37 31 -18 -1 -40
-3 -49 -6z"/>
<path d="M7186 2503 c-31 -153 -85 -488 -79 -493 11 -10 383 -74 389 -67 3 3
8 23 11 44 l5 38 -143 24 c-79 13 -145 25 -147 26 -1 1 3 35 9 75 12 70 13 72
38 67 14 -3 72 -13 129 -23 115 -20 125 -17 120 41 l-3 29 -123 21 c-67 12
-124 24 -127 27 -3 2 0 29 6 60 l11 55 140 -25 c76 -13 141 -23 142 -21 2 2 7
22 10 45 l7 40 -188 32 c-103 18 -191 32 -195 32 -3 0 -9 -12 -12 -27z"/>
<path d="M6057 2503 c-22 -4 -26 -8 -22 -26 9 -37 55 -301 55 -315 0 -7 -61
56 -136 140 -125 141 -138 153 -167 151 -54 -5 -79 -13 -74 -26 2 -7 24 -123
47 -259 l44 -248 25 0 c14 0 37 3 50 7 26 7 27 -11 -12 210 -13 73 -21 130
-17 128 3 -2 65 -70 136 -150 l129 -145 45 6 c25 3 49 10 53 14 7 6 -54 389
-78 498 -5 22 -15 24 -78 15z"/>
<path d="M13531 2489 c-47 -5 -86 -11 -88 -13 -2 -2 7 -121 19 -265 l23 -261
53 0 54 0 -6 88 c-4 48 -9 99 -12 115 -5 26 -4 27 38 27 56 0 73 -12 154 -115
67 -85 67 -85 113 -84 85 1 86 6 26 85 -29 39 -72 87 -95 106 l-41 35 31 13
c96 40 118 171 40 245 -30 29 -35 30 -128 32 -53 0 -135 -3 -181 -8z m238
-110 c17 -31 8 -74 -18 -89 -24 -12 -173 -30 -182 -21 -4 3 -9 34 -11 68 l-4
62 30 4 c17 2 62 4 101 3 64 -1 71 -3 84 -27z"/>
<path d="M14114 2243 l-121 -258 26 -6 c14 -4 40 -7 56 -8 28 -1 32 4 55 59
l25 60 100 -6 c55 -4 105 -12 112 -18 6 -6 18 -33 26 -61 14 -50 14 -50 66
-58 29 -5 55 -6 58 -3 5 5 -154 515 -167 535 -3 4 -30 11 -60 15 l-55 6 -121
-257z m195 40 c12 -43 24 -86 27 -95 5 -16 -2 -18 -60 -18 -36 0 -67 4 -70 9
-6 9 65 180 75 181 3 0 16 -35 28 -77z"/>
<path d="M13046 2415 c-92 -19 -169 -35 -171 -37 -3 -4 96 -512 101 -517 4 -4
227 35 348 61 l48 10 -6 41 c-4 23 -8 43 -10 44 -2 3 -205 -36 -272 -52 -19
-4 -23 2 -33 52 -19 94 -24 88 102 112 156 31 147 27 140 64 -3 18 -9 36 -14
41 -4 5 -61 -1 -129 -14 -73 -13 -125 -19 -131 -13 -5 5 -10 31 -11 58 l-3 49
133 26 c73 15 134 29 136 31 3 2 1 20 -3 39 -9 46 -17 46 -225 5z"/>
<path d="M7681 2195 c-33 -135 -61 -251 -61 -258 0 -8 20 -17 49 -23 l50 -10
27 108 c29 118 23 113 91 87 28 -10 30 -15 79 -144 l41 -110 62 -17 c33 -9 61
-15 61 -14 0 19 -74 214 -90 236 l-21 29 38 7 c58 10 91 34 114 82 39 80 11
159 -68 194 -44 20 -263 77 -294 78 -13 0 -29 -50 -78 -245z m262 110 c69 -20
94 -49 80 -92 -16 -47 -48 -55 -137 -34 -42 10 -79 21 -83 24 -3 4 0 34 7 68
13 61 13 61 44 56 17 -3 57 -13 89 -22z"/>
<path d="M14665 2184 c-44 -191 -56 -257 -47 -263 25 -15 344 -83 353 -74 4 4
10 24 11 42 l3 35 -125 28 c-68 16 -126 31 -127 32 -2 2 17 90 41 197 25 107
46 203 48 213 3 19 -2 22 -73 39 l-25 6 -59 -255z"/>
<path d="M5453 2373 c-24 -8 -43 -19 -43 -25 0 -6 25 -87 55 -181 30 -93 55
-179 55 -189 0 -49 -51 -88 -114 -88 -72 0 -81 14 -151 235 -26 83 -50 153
-54 158 -11 11 -103 -23 -98 -37 2 -6 28 -83 56 -171 81 -252 104 -280 224
-280 154 1 264 96 242 208 -11 54 -118 387 -124 386 -3 0 -25 -7 -48 -16z"/>
<path d="M12510 2299 c-175 -51 -231 -72 -227 -82 2 -7 37 -120 77 -252 40
-132 74 -242 76 -244 4 -5 214 59 249 77 40 19 83 60 103 97 36 67 10 225 -51
316 -50 75 -146 112 -227 88z m115 -122 c22 -22 40 -56 54 -101 42 -136 24
-181 -89 -217 -38 -13 -72 -20 -76 -17 -7 8 -106 329 -102 333 10 10 109 34
142 34 30 1 45 -6 71 -32z"/>
<path d="M8335 2256 c-53 -23 -85 -71 -85 -125 0 -61 28 -105 95 -148 112 -72
130 -88 133 -120 7 -72 -106 -86 -175 -21 -12 11 -25 37 -28 58 -6 33 -11 40
-38 45 -18 4 -40 9 -49 11 -15 5 -18 -2 -18 -41 0 -25 6 -60 14 -78 31 -75
132 -127 245 -127 98 0 161 64 161 163 0 64 -31 102 -134 167 -102 63 -123 92
-87 121 28 23 49 24 101 3 42 -17 60 -39 60 -73 0 -25 4 -27 63 -36 l47 -7 0
31 c0 79 -62 148 -159 175 -69 19 -106 20 -146 2z"/>
<path d="M11990 2158 c-102 -28 -187 -52 -189 -54 -3 -3 128 -505 134 -512 3
-3 387 97 392 102 2 2 -18 76 -22 83 -1 2 -57 -13 -126 -31 -173 -48 -161 -48
-175 -1 -6 22 -14 54 -18 70 l-7 30 129 34 129 33 -10 42 c-5 22 -11 42 -12
43 -1 2 -189 -46 -246 -63 -13 -3 -19 6 -28 40 -18 74 -21 71 107 105 64 18
125 35 135 37 15 5 17 12 11 37 -3 18 -9 37 -13 43 -4 8 -64 -5 -191 -38z"/>
<path d="M8773 2141 c-3 -14 -34 -129 -68 -256 -34 -126 -61 -231 -60 -233 2
-2 25 -9 52 -16 l49 -13 68 255 c37 140 64 258 59 262 -4 4 -27 12 -51 18 -41
10 -42 9 -49 -17z"/>
<path d="M8917 1862 c-26 -136 -47 -254 -47 -262 0 -12 27 -21 113 -38 62 -12
133 -22 157 -22 135 0 227 135 218 320 -3 68 -7 84 -33 121 -17 23 -46 50 -65
60 -28 14 -257 69 -289 69 -3 0 -27 -111 -54 -248z m247 117 c48 -13 84 -51
88 -92 9 -89 -31 -213 -77 -243 -24 -16 -36 -16 -102 -7 -41 6 -77 13 -80 16
-3 3 9 83 27 177 l33 172 36 -7 c20 -3 53 -11 75 -16z"/>
<path d="M11546 2059 c-87 -15 -161 -31 -164 -33 -5 -5 80 -502 88 -516 5 -8
86 3 96 13 4 3 -1 48 -10 100 -20 117 -20 127 0 127 9 0 57 7 106 16 l90 17
-5 39 c-3 22 -7 42 -9 44 -3 2 -51 -5 -109 -15 -57 -10 -105 -18 -107 -17 -6
6 -24 117 -20 121 3 3 58 15 124 26 65 12 121 23 122 24 2 2 1 22 -3 44 -8 49
8 48 -199 10z"/>
<path d="M9508 1741 l-146 -250 52 -9 c28 -4 54 -7 58 -5 3 2 20 27 36 56 l30
53 100 -15 c55 -9 104 -19 107 -23 4 -4 13 -33 19 -65 l12 -58 53 -8 c29 -5
54 -7 57 -5 2 3 -24 129 -59 281 l-62 276 -40 6 c-22 4 -47 8 -56 11 -12 3
-53 -59 -161 -245z m201 8 c11 -52 18 -95 16 -97 -6 -6 -111 9 -125 18 -9 6 0
29 36 94 26 47 49 84 51 83 1 -2 11 -46 22 -98z"/>
<path d="M10675 1963 c-88 -8 -161 -16 -162 -17 -3 -2 45 -528 49 -530 2 -2
375 30 396 34 1 0 2 20 2 45 l0 44 -47 -5 c-174 -17 -248 -22 -252 -18 -3 3
-7 36 -9 73 l-4 68 63 6 c35 4 94 9 132 13 l67 6 0 44 c0 25 -5 44 -11 44 -6
0 -65 -5 -131 -11 -137 -13 -138 -13 -138 62 l0 46 128 12 c70 6 133 11 140
11 8 0 12 16 12 45 l0 45 -37 -1 c-21 -1 -110 -8 -198 -16z"/>
<path d="M10047 1933 l-68 -4 5 -127 c3 -70 9 -189 12 -266 l6 -138 137 4
c122 3 142 6 185 28 37 19 56 38 80 80 29 52 31 61 31 155 -1 115 -21 172 -80
224 -57 49 -94 55 -308 44z m208 -97 c51 -22 69 -65 69 -166 1 -142 -22 -171
-145 -178 l-76 -4 -6 173 c-3 95 -3 177 -1 181 9 13 123 9 159 -6z"/>
<path d="M6837 1388 c-12 -203 -9 -326 10 -365 23 -49 78 -82 154 -93 79 -11
142 -3 181 24 72 49 82 87 93 354 l8 172 -55 0 -55 0 -7 -152 c-10 -224 -15
-258 -43 -286 -22 -21 -31 -24 -80 -20 -47 4 -61 10 -81 34 l-25 28 7 208 7
208 -54 0 -54 0 -6 -112z"/>
<path d="M6290 1481 l-65 -6 2 -45 c6 -108 35 -505 37 -507 1 -1 26 0 55 4
l52 6 -7 113 -7 114 41 0 c22 0 47 -3 56 -6 8 -3 50 -50 92 -105 l77 -99 51 0
c84 0 85 8 23 93 -31 41 -74 90 -96 109 l-40 34 45 24 c54 28 78 68 78 130 0
56 -25 105 -67 130 -27 17 -49 20 -147 18 -63 -1 -144 -4 -180 -7z m258 -97
c15 -10 22 -25 22 -48 0 -56 -17 -67 -118 -79 -51 -6 -94 -9 -96 -6 -2 2 -7
34 -11 71 l-7 67 33 4 c84 10 155 7 177 -9z"/>
<path d="M13698 1453 c-12 -3 -16 -12 -13 -31 3 -15 16 -137 30 -272 14 -134
27 -246 29 -248 2 -1 27 0 55 4 38 5 51 11 50 23 0 9 -12 131 -27 271 l-27
255 -40 2 c-22 0 -48 -1 -57 -4z"/>
<path d="M14121 1398 c-163 -362 -212 -471 -209 -474 2 -1 27 -6 55 -10 l52
-7 27 62 27 61 97 0 c54 0 105 -3 114 -6 8 -3 25 -35 36 -70 l22 -64 58 0 59
0 -85 253 c-119 349 -102 317 -169 317 l-56 0 -28 -62z m112 -171 c15 -50 28
-95 27 -99 0 -12 -128 -10 -135 2 -6 9 65 190 75 190 3 0 18 -42 33 -93z"/>
<path d="M7524 1425 c-3 -7 -36 -127 -73 -266 l-68 -254 44 -13 c25 -8 50 -11
57 -9 7 3 18 29 24 58 7 29 19 76 28 105 15 52 15 52 46 43 53 -15 74 -45 114
-165 l39 -114 51 -15 c71 -21 76 -20 68 13 -19 73 -65 195 -84 220 l-22 27 48
7 c26 4 59 15 72 25 62 46 80 143 39 204 -29 45 -85 71 -245 112 -103 27 -134
32 -138 22z m166 -126 c101 -27 120 -41 120 -84 0 -38 -28 -75 -57 -75 -10 0
-34 4 -53 9 -19 6 -54 15 -77 21 -30 8 -43 16 -43 29 0 17 28 121 33 121 1 0
36 -9 77 -21z"/>
<path d="M13468 1433 c-16 -2 -28 -9 -28 -14 0 -5 12 -82 26 -170 14 -88 24
-164 22 -170 -2 -7 -184 198 -259 292 -13 17 -22 19 -67 13 -44 -6 -52 -10
-52 -28 0 -31 78 -518 84 -523 9 -9 96 8 96 19 0 6 -11 82 -25 170 -14 89 -24
162 -22 164 2 2 64 -66 138 -152 133 -155 134 -156 169 -150 19 3 43 6 53 6
11 0 17 8 17 23 0 18 -54 371 -75 495 -6 34 -10 35 -77 25z"/>
<path d="M12614 1394 c-36 -13 -42 -20 -57 -68 -24 -75 -23 -77 20 -62 26 9
40 21 46 42 13 39 12 39 44 16 24 -16 33 -18 60 -8 18 6 34 14 35 18 3 8 -87
78 -99 77 -4 0 -26 -7 -49 -15z"/>
<path d="M12648 1261 c-68 -27 -104 -56 -135 -109 -25 -41 -28 -57 -27 -127 1
-232 168 -367 369 -298 68 23 149 103 165 163 36 135 -40 318 -155 371 -52 24
-154 24 -217 0z m158 -90 c48 -22 75 -62 99 -144 38 -133 -29 -227 -155 -215
-61 6 -93 32 -126 103 -46 97 -41 176 14 227 51 48 105 57 168 29z"/>
<path d="M8032 992 l-173 -237 38 -12 c67 -20 77 -17 114 37 19 27 41 50 49
49 8 0 58 -12 110 -27 85 -24 95 -30 98 -52 11 -111 10 -109 55 -120 23 -6 49
-13 57 -16 13 -3 11 38 -20 292 l-35 297 -45 13 c-25 8 -52 14 -60 14 -8 -1
-93 -107 -188 -238z m213 -8 c4 -52 5 -98 2 -100 -4 -5 -128 24 -135 31 -6 5
109 165 118 165 4 0 11 -43 15 -96z"/>
<path d="M12185 1133 c-99 -25 -181 -47 -183 -48 -8 -7 20 -85 31 -85 7 0 63
13 125 29 61 16 112 27 112 25 0 -1 -43 -95 -96 -209 -84 -181 -95 -210 -89
-243 11 -68 3 -68 226 -12 112 28 209 52 216 55 8 3 8 15 1 47 -6 24 -12 44
-12 45 -1 1 -70 -15 -153 -36 l-152 -39 13 32 c8 17 53 114 101 216 79 168 86
189 80 228 -5 31 -11 42 -23 41 -9 0 -98 -21 -197 -46z"/>
<path d="M8531 873 c-34 -137 -64 -255 -67 -264 -4 -14 27 -24 181 -63 101
-25 187 -46 189 -46 6 0 29 81 24 85 -2 2 -59 18 -128 35 -68 17 -127 33 -131
36 -4 2 17 99 47 216 29 117 54 216 54 220 0 8 -65 28 -91 28 -13 0 -29 -51
-78 -247z"/>
<path d="M11707 1030 c-20 -4 -41 -10 -45 -14 -8 -8 -122 -569 -117 -574 2 -2
27 0 56 5 l53 8 13 64 c7 36 15 66 17 68 2 2 43 10 92 19 49 8 96 17 106 20
11 3 25 -11 48 -50 17 -31 34 -58 38 -60 4 -2 32 1 63 7 l56 12 -156 252 c-96
156 -162 252 -171 252 -8 -1 -32 -5 -53 -9z m76 -207 c68 -116 68 -109 -8
-123 -36 -7 -68 -10 -71 -8 -4 5 26 208 32 208 1 0 23 -35 47 -77z"/>
<path d="M9215 978 c-8 -25 -93 -523 -90 -527 2 -2 53 -12 112 -23 215 -39
294 -15 354 108 28 56 34 80 37 154 5 98 -6 144 -45 191 -38 45 -87 65 -213
88 -133 24 -149 25 -155 9z m186 -109 c76 -17 111 -52 117 -120 5 -65 -19
-168 -48 -210 -26 -36 -70 -45 -151 -30 -34 6 -64 13 -67 15 -4 5 43 296 54
339 6 20 24 21 95 6z"/>
<path d="M11297 960 c-27 -5 -50 -10 -52 -12 -2 -2 -13 -86 -25 -188 -12 -102
-24 -186 -25 -188 -1 -2 -35 75 -75 170 -40 95 -75 175 -77 177 -4 5 -153 -16
-160 -23 -4 -4 66 -535 72 -544 1 -1 23 1 48 4 57 8 56 -3 21 239 -14 97 -24
178 -22 180 2 2 39 -86 83 -196 l80 -199 50 7 c28 3 52 7 54 9 2 2 14 99 27
215 13 116 25 213 26 215 2 1 16 -92 32 -207 l29 -210 46 7 c25 4 48 8 51 11
3 3 -48 399 -67 511 -6 36 -18 38 -116 22z"/>
<path d="M9746 647 c-66 -146 -120 -269 -120 -274 -1 -4 24 -9 55 -11 l55 -3
26 61 27 60 73 -1 c40 0 91 -3 112 -7 38 -7 41 -9 60 -70 l20 -62 58 0 c32 0
58 2 58 5 0 13 -182 541 -189 548 -5 5 -32 11 -62 14 l-54 5 -119 -265z m198
38 c15 -47 29 -92 32 -100 5 -12 -7 -15 -70 -15 -42 0 -76 2 -76 4 0 2 14 36
30 75 17 40 35 83 40 96 5 14 11 25 14 25 2 0 16 -38 30 -85z"/>
<path d="M10536 891 c-5 -7 -196 -549 -196 -554 0 -1 26 -1 58 1 l59 4 19 61
20 62 115 3 114 3 24 -61 24 -60 59 0 c32 0 58 3 58 8 0 4 -53 127 -117 274
l-118 268 -57 0 c-31 0 -59 -4 -62 -9z m108 -231 c24 -61 31 -87 23 -92 -7 -4
-41 -8 -76 -8 -46 0 -62 3 -58 13 2 6 17 51 33 99 15 49 32 84 36 80 4 -4 23
-46 42 -92z"/>
</g>
</svg>
